<svg width="16" height="22" viewBox="0 0 16 22" fill="none" xmlns="http://www.w3.org/2000/svg">
<path d="M7.00388 20.6298C4.95271 18.0124 0.390625 11.6685 0.390625 8.10522C0.390625 3.78195 3.76837 0.277344 7.93516 0.277344C12.1004 0.277344 15.4797 3.78195 15.4797 8.10522C15.4797 11.6685 10.8822 18.0124 8.86644 20.6298C8.38311 21.2536 7.4872 21.2536 7.00388 20.6298ZM7.93516 10.7145C9.32225 10.7145 10.45 9.54441 10.45 8.10522C10.45 6.66603 9.32225 5.49593 7.93516 5.49593C6.54806 5.49593 5.42031 6.66603 5.42031 8.10522C5.42031 9.54441 6.54806 10.7145 7.93516 10.7145Z" fill="#19FFFF"/>
</svg>
