<svg width="45" height="44" viewBox="0 0 45 44" fill="none" xmlns="http://www.w3.org/2000/svg">
<path d="M23.8834 42.9058C35.4366 42.9058 44.8024 33.5304 44.8024 21.9653C44.8024 10.4003 35.4366 1.0249 23.8834 1.0249C12.3301 1.0249 2.96436 10.4003 2.96436 21.9653C2.96436 33.5304 12.3301 42.9058 23.8834 42.9058Z" stroke="url(#paint0_linear_487_569)" stroke-width="0.8" stroke-miterlimit="10"/>
<path d="M13.9251 43.6006C5.75993 39.8274 0.0915527 31.5574 0.0915527 21.9653C0.0915527 12.8027 5.26347 4.84628 12.8406 0.86084" stroke="url(#paint1_linear_487_569)" stroke-width="0.3836" stroke-miterlimit="10" stroke-linecap="round" stroke-linejoin="round"/>
<path d="M38.17 27.6877C37.4277 28.4549 37.394 28.4597 36.7047 27.7263C36.0781 27.0653 35.4804 27.0701 34.849 27.7504C34.2175 28.4259 34.0922 28.4259 33.4753 27.7649C32.8149 27.0556 32.2317 27.0556 31.5713 27.7697C30.9736 28.4163 30.8146 28.4211 30.241 27.8035C29.5276 27.0363 28.9878 27.0315 28.2889 27.7842C27.696 28.4211 27.5514 28.4211 26.9634 27.7939C26.2645 27.0412 25.7198 27.0412 25.0064 27.7987C24.4136 28.4259 24.2882 28.4259 23.6857 27.7794C23.0061 27.0556 22.4422 27.046 21.7818 27.7553C21.1504 28.4308 21.0299 28.4308 20.4129 27.7649C19.7718 27.0749 19.1838 27.0556 18.5572 27.7167C17.8535 28.4501 17.8053 28.4452 17.0823 27.6974C16.5039 27.0942 15.9013 27.0894 15.3181 27.6781C14.5614 28.4501 14.5614 28.4501 13.8046 27.6781C13.2455 27.1039 12.643 27.0942 12.0935 27.6395C11.3127 28.4115 11.3175 28.4066 10.474 27.6202C10.1799 27.3451 9.85701 27.046 9.375 27.4706C9.7365 27.7553 10.0594 27.9579 10.3149 28.2233C11.0186 28.9519 11.5778 28.9615 12.2718 28.2185C12.8551 27.596 13.0141 27.596 13.5974 28.2281C14.2625 28.947 14.8458 28.9615 15.5013 28.2619C16.1424 27.5816 16.2532 27.5816 16.875 28.2426C17.5353 28.9519 18.1138 28.9519 18.7837 28.2426C19.3814 27.6057 19.5453 27.6057 20.1141 28.2088C20.8274 28.9663 21.3673 28.9712 22.0662 28.2233C22.6542 27.5912 22.8037 27.5912 23.3917 28.2281C24.0665 28.9519 24.6449 28.9615 25.3004 28.2619C25.9367 27.5816 26.0572 27.5816 26.6742 28.2426C27.3442 28.9567 27.9081 28.9567 28.5781 28.2474C29.1951 27.5912 29.3252 27.596 29.9566 28.2619C30.5977 28.9422 31.1857 28.947 31.8123 28.2812C32.4823 27.5719 32.5498 27.5719 33.2343 28.286C33.8464 28.9277 34.4489 28.9374 35.0418 28.3198C35.76 27.5719 35.8082 27.5719 36.5119 28.3005C37.0228 28.8312 37.5627 28.9374 38.0543 28.5514C38.4785 28.2233 38.8689 27.8469 39.2738 27.4899C38.8544 27.1618 38.6472 27.1956 38.17 27.6877Z" fill="url(#paint2_linear_487_569)"/>
<path d="M38.17 30.7033C37.4277 31.4705 37.394 31.4753 36.7047 30.7419C36.0781 30.0809 35.4804 30.0857 34.849 30.7661C34.2175 31.4416 34.0922 31.4416 33.4753 30.7805C32.8149 30.0713 32.2317 30.0713 31.5713 30.7854C30.9736 31.4319 30.8146 31.4367 30.241 30.8191C29.5276 30.052 28.9878 30.0471 28.2889 30.7998C27.696 31.4367 27.5514 31.4367 26.9634 30.8095C26.2645 30.0568 25.7198 30.0568 25.0064 30.8143C24.4136 31.4416 24.2882 31.4416 23.6857 30.795C23.0061 30.0713 22.4422 30.0616 21.7818 30.7709C21.1504 31.4464 21.0299 31.4464 20.4129 30.7805C19.7718 30.0906 19.1838 30.0713 18.5572 30.7323C17.8535 31.4657 17.8053 31.4609 17.0823 30.713C16.5039 30.1099 15.9013 30.105 15.3181 30.6937C14.5614 31.4657 14.5614 31.4657 13.8046 30.6937C13.2455 30.1195 12.643 30.1099 12.0935 30.6551C11.3127 31.4271 11.3175 31.4223 10.474 30.6358C10.1799 30.3608 9.85701 30.0616 9.375 30.4862C9.7365 30.7709 10.0594 30.9735 10.3149 31.2389C11.0186 31.9675 11.5778 31.9771 12.2718 31.2341C12.8551 30.6117 13.0141 30.6117 13.5974 31.2437C14.2625 31.9627 14.8458 31.9771 15.5013 31.2775C16.1424 30.5972 16.2532 30.5972 16.875 31.2582C17.5353 31.9675 18.1138 31.9675 18.7837 31.2582C19.3814 30.6213 19.5453 30.6213 20.1141 31.2244C20.8274 31.982 21.3673 31.9868 22.0662 31.2389C22.6542 30.6068 22.8037 30.6068 23.3917 31.2437C24.0665 31.9675 24.6449 31.9771 25.3004 31.2775C25.9367 30.5972 26.0572 30.5972 26.6742 31.2582C27.3442 31.9723 27.9081 31.9723 28.5781 31.263C29.1951 30.6068 29.3252 30.6117 29.9566 31.2775C30.5977 31.9578 31.1857 31.9627 31.8123 31.2968C32.4823 30.5875 32.5498 30.5875 33.2343 31.3016C33.8464 31.9434 34.4489 31.953 35.0418 31.3354C35.76 30.5875 35.8082 30.5875 36.5119 31.3161C37.0228 31.8469 37.5627 31.953 38.0543 31.567C38.4785 31.2389 38.8689 30.8626 39.2738 30.5055C38.8544 30.1726 38.6472 30.2112 38.17 30.7033Z" fill="url(#paint3_linear_487_569)"/>
<path d="M23.8495 15.9582C23.4205 14.0861 22.8325 13.0728 22.1577 13.1597C21.748 12.3491 21.3383 11.5481 20.9286 10.7424C20.8755 10.7617 20.8177 10.7761 20.7647 10.7954C21.7142 15.2296 22.2348 19.6927 21.5503 24.2571C21.7672 24.2571 21.9118 24.262 22.0564 24.2571C23.1169 24.2137 24.1773 24.1172 25.2329 24.1413C25.8257 24.1558 26.1969 24.0641 26.5295 23.5044C27.667 21.5648 28.8768 19.6686 30.0529 17.7531C30.1686 17.5697 30.2698 17.3767 30.4048 17.1403C28.7949 16.1512 27.2187 15.1958 25.657 14.2163C25.3582 14.0282 25.1316 13.7387 24.8665 13.4974C25.2184 13.4395 25.5703 13.3285 25.9221 13.3382C28.0574 13.4106 30.1927 13.4926 32.3232 13.618C32.5738 13.6325 32.9064 13.8352 33.0317 14.0523C34.1596 16.0209 35.2538 18.0136 36.3383 20.0063C36.4395 20.1945 36.4202 20.4454 36.4588 20.6722C36.2419 20.6191 35.9912 20.6239 35.8081 20.513C34.121 19.4804 32.4485 18.4286 30.7084 17.3381C29.3203 19.5866 27.9562 21.7916 26.5439 24.0738C27.2573 24.151 27.8791 24.2137 28.5009 24.2957C28.7226 24.3247 28.9588 24.3488 29.1467 24.4501C30.8434 25.3814 32.6895 25.0967 34.497 25.1256C35.2297 25.1353 35.9623 25.1256 36.6901 25.1256C36.9552 25.6371 36.7672 25.777 36.2852 25.777C34.2367 25.7674 32.1882 25.7722 30.1445 25.7722C24.3363 25.7722 18.5282 25.7722 12.72 25.7722C12.4549 25.7722 12.1898 25.7722 11.9006 25.7722C11.7415 25.3476 11.7753 25.116 12.2814 25.1208C13.5057 25.1305 14.73 25.1256 15.9543 25.1208C16.176 25.1208 16.4411 25.1594 16.6098 25.0581C17.7232 24.3729 18.9282 24.0931 20.3261 24.1848C19.4536 21.3863 18.8174 18.6023 16.7014 16.5275C16.6291 16.5565 16.552 16.5854 16.4797 16.6144C16.7255 17.2802 16.9713 17.9412 17.2171 18.6071C17.1641 18.6409 17.1063 18.6746 17.0532 18.7084C16.6869 18.1391 16.3254 17.5697 15.9543 16.9955C15.7759 17.7772 15.5735 18.6505 15.3421 19.6445C14.971 18.7615 15.1108 17.6131 15.6458 16.5709C15.5976 16.5275 15.5542 16.4793 15.506 16.4358C14.9903 16.9907 14.4745 17.5504 13.9829 18.0812C13.4864 17.0583 14.06 16.3297 15.8723 16.074C15.2457 15.8617 14.7926 15.7073 14.3444 15.5529C14.354 15.4901 14.3588 15.4274 14.3685 15.3647C14.7782 15.4322 15.1831 15.4998 15.5976 15.5673C15.5397 15.1379 15.4289 14.5927 16.0555 14.2115C15.9687 14.5396 15.8964 14.8146 15.8 15.1669C16.1567 14.7567 16.3881 14.3225 16.7496 14.1198C17.1014 13.922 17.5883 13.9654 17.998 14.033C17.4388 14.4576 16.8749 14.8774 16.3158 15.302C16.3591 15.3695 16.3977 15.4371 16.4411 15.5094C16.9568 15.3502 17.4581 14.8725 18.0317 15.3888C17.6847 15.4708 17.3569 15.548 17.0291 15.6252C18.2197 15.8713 19.2753 16.267 19.8826 17.2802C19.0054 17.0534 18.0847 16.8122 17.0484 16.542C19.1066 18.7325 19.8537 21.4297 20.7647 24.069C21.6853 19.601 21.4154 15.162 20.408 10.7086C19.791 11.9197 19.0969 13.0969 19.0487 14.5493C18.3547 13.4974 18.5523 11.9486 19.4729 10.3274C18.051 11.331 16.6243 12.3394 15.0626 13.4443C15.3662 12.0403 17.2894 10.4191 19.4584 9.56023C18.6776 9.10186 17.9449 9.18871 17.2171 9.72428C17.1304 9.51198 17.0677 9.35759 17.0147 9.23214C16.364 9.49269 15.7374 9.73876 15.1156 9.98483C15.1638 9.14529 16.2242 8.09826 17.1737 7.95834C18.3354 7.78946 19.1259 8.50839 19.9308 9.18871C19.9838 9.14529 20.0368 9.10186 20.0899 9.05844C19.5645 8.22854 19.0391 7.39864 18.5426 6.61217C19.5115 6.59287 19.8971 7.03677 20.22 8.82201C20.6153 7.46137 21.2997 6.71832 22.6782 7.00299C22.0998 7.38899 21.5552 7.75086 21.0105 8.11274C21.0442 8.18029 21.0828 8.25266 21.1165 8.32021C22.0613 7.53374 23.1024 7.37452 24.211 7.81841C24.934 8.10791 25.228 8.75446 25.4498 9.44443C24.1484 8.80271 22.8662 8.48909 21.478 9.13564C22.6108 9.39136 23.7097 9.64708 23.9073 11.0029C23.2422 10.6362 22.5481 10.2502 21.8492 9.86421C21.8154 9.90763 21.7769 9.94623 21.7431 9.98966C23.6133 11.5723 24.3749 13.5505 23.8495 15.9582ZM32.1014 17.8689C32.275 16.7157 32.4292 15.6638 32.5883 14.612C32.8534 15.7073 33.0124 16.8025 33.1667 17.8978C33.2823 18.7132 33.6439 19.0799 34.6079 19.2874C33.9957 17.5794 33.4077 15.9099 32.7762 14.2549C32.7136 14.0909 32.3714 13.9317 32.1641 13.9413C31.5905 13.9558 31.0169 14.0523 30.4433 14.1247C29.2865 14.2694 28.1345 14.4142 26.8379 14.5782C27.5465 15.1476 28.0671 15.5866 28.9395 15.2055C29.9276 14.776 30.9832 14.4962 32.005 14.1488C32.0195 14.1826 32.0291 14.2163 32.0436 14.2501C31.1567 14.8677 30.2698 15.4901 29.301 16.1656C29.6577 16.3876 29.9276 16.5516 30.2264 16.735C30.935 15.9099 31.6098 15.1331 32.2798 14.3514C32.3087 14.3707 32.3376 14.39 32.3665 14.4093C31.9713 15.3647 31.5761 16.3152 31.1615 17.3092C31.4845 17.4973 31.7544 17.6614 32.1014 17.8689Z" fill="url(#paint4_linear_487_569)"/>
<defs>
<linearGradient id="paint0_linear_487_569" x1="7.43278" y1="8.7181" x2="40.3647" y2="35.1766" gradientUnits="userSpaceOnUse">
<stop offset="0.0458" stop-color="#F5C28D"/>
<stop offset="0.0652" stop-color="#E4AD75"/>
<stop offset="0.1001" stop-color="#C98C4F"/>
<stop offset="0.135" stop-color="#B57332"/>
<stop offset="0.1693" stop-color="#A6611D"/>
<stop offset="0.2029" stop-color="#9D5610"/>
<stop offset="0.2349" stop-color="#9A520C"/>
<stop offset="0.2433" stop-color="#A7621F"/>
<stop offset="0.2672" stop-color="#C98B4E"/>
<stop offset="0.2882" stop-color="#E1A970"/>
<stop offset="0.3055" stop-color="#F0BB85"/>
<stop offset="0.3169" stop-color="#F5C28D"/>
<stop offset="0.3191" stop-color="#F6C48F"/>
<stop offset="0.3432" stop-color="#FBD6A4"/>
<stop offset="0.3669" stop-color="#FEE1B1"/>
<stop offset="0.3894" stop-color="#FFE5B5"/>
<stop offset="0.4138" stop-color="#FEE1B0"/>
<stop offset="0.4409" stop-color="#FAD5A3"/>
<stop offset="0.4691" stop-color="#F3C28D"/>
<stop offset="0.4833" stop-color="#EFB67F"/>
<stop offset="0.6094" stop-color="#C58446"/>
<stop offset="0.7461" stop-color="#9A520C"/>
<stop offset="0.7597" stop-color="#AA6522"/>
<stop offset="0.7946" stop-color="#CF9154"/>
<stop offset="0.821" stop-color="#E6AC73"/>
<stop offset="0.8357" stop-color="#EFB67F"/>
<stop offset="1" stop-color="#EFB67F"/>
</linearGradient>
<linearGradient id="paint1_linear_487_569" x1="-2.82376e-05" y1="22.2306" x2="14.0161" y2="22.2306" gradientUnits="userSpaceOnUse">
<stop stop-color="#B66B29"/>
<stop offset="0.0674" stop-color="#BF7731"/>
<stop offset="0.19" stop-color="#D89845"/>
<stop offset="0.3494" stop-color="#FFCB64"/>
<stop offset="0.4031" stop-color="#FFCD69"/>
<stop offset="0.4638" stop-color="#FFD176"/>
<stop offset="0.5277" stop-color="#FFD88D"/>
<stop offset="0.5936" stop-color="#FFE3AC"/>
<stop offset="0.6235" stop-color="#FFE8BD"/>
<stop offset="0.6792" stop-color="#FFDC98"/>
<stop offset="0.7612" stop-color="#FFCB64"/>
<stop offset="0.7905" stop-color="#F0B758"/>
<stop offset="0.8489" stop-color="#D79644"/>
<stop offset="0.9047" stop-color="#C57E35"/>
<stop offset="0.9564" stop-color="#BA702C"/>
<stop offset="1" stop-color="#B66B29"/>
</linearGradient>
<linearGradient id="paint2_linear_487_569" x1="-5.8727" y1="9.19802" x2="53.0086" y2="45.0378" gradientUnits="userSpaceOnUse">
<stop offset="0.0458" stop-color="#F5C28D"/>
<stop offset="0.0874" stop-color="#DEAA71"/>
<stop offset="0.1296" stop-color="#CE985C"/>
<stop offset="0.1711" stop-color="#C38D4F"/>
<stop offset="0.2106" stop-color="#C0894B"/>
<stop offset="0.2651" stop-color="#DAAE76"/>
<stop offset="0.3177" stop-color="#EECC98"/>
<stop offset="0.361" stop-color="#FADEAD"/>
<stop offset="0.3894" stop-color="#FFE5B5"/>
<stop offset="0.4533" stop-color="#FEE1B0"/>
<stop offset="0.5242" stop-color="#FAD5A3"/>
<stop offset="0.5981" stop-color="#F3C28D"/>
<stop offset="0.6353" stop-color="#EFB67F"/>
<stop offset="0.6885" stop-color="#C58446"/>
<stop offset="0.7461" stop-color="#9A520C"/>
<stop offset="0.7597" stop-color="#AA6522"/>
<stop offset="0.7946" stop-color="#CF9154"/>
<stop offset="0.821" stop-color="#E6AC73"/>
<stop offset="0.8357" stop-color="#EFB67F"/>
<stop offset="1" stop-color="#EFB67F"/>
</linearGradient>
<linearGradient id="paint3_linear_487_569" x1="-7.21099" y1="11.3967" x2="51.6703" y2="47.2365" gradientUnits="userSpaceOnUse">
<stop offset="0.0458" stop-color="#F5C28D"/>
<stop offset="0.0874" stop-color="#DEAA71"/>
<stop offset="0.1296" stop-color="#CE985C"/>
<stop offset="0.1711" stop-color="#C38D4F"/>
<stop offset="0.2106" stop-color="#C0894B"/>
<stop offset="0.2651" stop-color="#DAAE76"/>
<stop offset="0.3177" stop-color="#EECC98"/>
<stop offset="0.361" stop-color="#FADEAD"/>
<stop offset="0.3894" stop-color="#FFE5B5"/>
<stop offset="0.4533" stop-color="#FEE1B0"/>
<stop offset="0.5242" stop-color="#FAD5A3"/>
<stop offset="0.5981" stop-color="#F3C28D"/>
<stop offset="0.6353" stop-color="#EFB67F"/>
<stop offset="0.6885" stop-color="#C58446"/>
<stop offset="0.7461" stop-color="#9A520C"/>
<stop offset="0.7597" stop-color="#AA6522"/>
<stop offset="0.7946" stop-color="#CF9154"/>
<stop offset="0.821" stop-color="#E6AC73"/>
<stop offset="0.8357" stop-color="#EFB67F"/>
<stop offset="1" stop-color="#EFB67F"/>
</linearGradient>
<linearGradient id="paint4_linear_487_569" x1="-2.75635" y1="4.07799" x2="56.1249" y2="39.9178" gradientUnits="userSpaceOnUse">
<stop offset="0.0458" stop-color="#F5C28D"/>
<stop offset="0.0874" stop-color="#DEAA71"/>
<stop offset="0.1296" stop-color="#CE985C"/>
<stop offset="0.1711" stop-color="#C38D4F"/>
<stop offset="0.2106" stop-color="#C0894B"/>
<stop offset="0.2651" stop-color="#DAAE76"/>
<stop offset="0.3177" stop-color="#EECC98"/>
<stop offset="0.361" stop-color="#FADEAD"/>
<stop offset="0.3894" stop-color="#FFE5B5"/>
<stop offset="0.4533" stop-color="#FEE1B0"/>
<stop offset="0.5242" stop-color="#FAD5A3"/>
<stop offset="0.5981" stop-color="#F3C28D"/>
<stop offset="0.6353" stop-color="#EFB67F"/>
<stop offset="0.6885" stop-color="#C58446"/>
<stop offset="0.7461" stop-color="#9A520C"/>
<stop offset="0.7597" stop-color="#AA6522"/>
<stop offset="0.7946" stop-color="#CF9154"/>
<stop offset="0.821" stop-color="#E6AC73"/>
<stop offset="0.8357" stop-color="#EFB67F"/>
<stop offset="1" stop-color="#EFB67F"/>
</linearGradient>
</defs>
</svg>
