<svg width="45" height="43" viewBox="0 0 45 43" fill="none" xmlns="http://www.w3.org/2000/svg">
<path d="M23.8834 42.1365C35.4366 42.1365 44.8024 32.7611 44.8024 21.1961C44.8024 9.63097 35.4366 0.255615 23.8834 0.255615C12.3301 0.255615 2.96436 9.63097 2.96436 21.1961C2.96436 32.7611 12.3301 42.1365 23.8834 42.1365Z" stroke="url(#paint0_linear_487_506)" stroke-width="0.8" stroke-miterlimit="10"/>
<path d="M13.9251 42.8313C5.75993 39.0581 0.0915527 30.7881 0.0915527 21.196C0.0915527 12.0334 5.26347 4.07699 12.8406 0.0915527" stroke="url(#paint1_linear_487_506)" stroke-width="0.3836" stroke-miterlimit="10" stroke-linecap="round" stroke-linejoin="round"/>
<path d="M13.3563 19.4543L38.329 19.3819L33.1667 18.1419H28.096L26.1342 17.2782L29.5035 17.2299L28.3466 16.6172L27.1561 15.9224H20.9334V15.078L26.4716 15.049L25.7004 14.3542H18.2438V15.049L14.5999 16.9356H9.66895V17.669H14.5517C15.2409 18.8946 13.3563 19.4543 13.3563 19.4543ZM28.096 19.0104H15.8097C21.8348 16.8729 28.096 19.0104 28.096 19.0104Z" fill="url(#paint2_linear_487_506)"/>
<path d="M6.25155 23.8257C6.05875 24.3709 5.97681 24.728 5.97681 24.728H36.7769C37.2638 24.4336 37.7217 24.1297 38.1555 23.8257H6.25155Z" fill="url(#paint3_linear_487_506)"/>
<path d="M9.43764 19.4156C7.84221 20.4578 6.91676 22.1659 6.42993 23.3625H38.8014C41.6741 21.2395 43.2407 19.2419 43.2407 19.2419L9.43764 19.4156ZM12.0308 21.032H11.5681C11.3126 21.032 11.1054 20.8776 11.1054 20.6846C11.1054 20.4916 11.3126 20.3372 11.5681 20.3372H12.0308C12.2863 20.3372 12.4936 20.4916 12.4936 20.6846C12.4936 20.8776 12.2863 21.032 12.0308 21.032ZM15.0289 21.032H14.5662C14.3107 21.032 14.1035 20.8776 14.1035 20.6846C14.1035 20.4916 14.3107 20.3372 14.5662 20.3372H15.0289C15.2844 20.3372 15.4916 20.4916 15.4916 20.6846C15.4916 20.8776 15.2844 21.032 15.0289 21.032ZM18.0318 21.032H17.5691C17.3136 21.032 17.1063 20.8776 17.1063 20.6846C17.1063 20.4916 17.3136 20.3372 17.5691 20.3372H18.0318C18.2873 20.3372 18.4945 20.4916 18.4945 20.6846C18.4945 20.8776 18.2824 21.032 18.0318 21.032ZM27.2574 21.032H26.7995C26.544 21.032 26.3367 20.8776 26.3367 20.6846C26.3367 20.4916 26.544 20.3372 26.7995 20.3372H27.2622C27.5177 20.3372 27.7249 20.4916 27.7249 20.6846C27.7249 20.8776 27.5128 21.032 27.2574 21.032ZM30.2554 21.032H29.7927C29.5373 21.032 29.33 20.8776 29.33 20.6846C29.33 20.4916 29.5373 20.3372 29.7927 20.3372H30.2554C30.5109 20.3372 30.7182 20.4916 30.7182 20.6846C30.7182 20.8776 30.5109 21.032 30.2554 21.032ZM33.2583 21.032H32.7956C32.5402 21.032 32.3329 20.8776 32.3329 20.6846C32.3329 20.4916 32.5402 20.3372 32.7956 20.3372H33.2583C33.5138 20.3372 33.7211 20.4916 33.7211 20.6846C33.7211 20.8776 33.509 21.032 33.2583 21.032Z" fill="url(#paint4_linear_487_506)"/>
<defs>
<linearGradient id="paint0_linear_487_506" x1="7.43278" y1="7.94881" x2="40.3647" y2="34.4073" gradientUnits="userSpaceOnUse">
<stop offset="0.0458" stop-color="#F5C28D"/>
<stop offset="0.0652" stop-color="#E4AD75"/>
<stop offset="0.1001" stop-color="#C98C4F"/>
<stop offset="0.135" stop-color="#B57332"/>
<stop offset="0.1693" stop-color="#A6611D"/>
<stop offset="0.2029" stop-color="#9D5610"/>
<stop offset="0.2349" stop-color="#9A520C"/>
<stop offset="0.2433" stop-color="#A7621F"/>
<stop offset="0.2672" stop-color="#C98B4E"/>
<stop offset="0.2882" stop-color="#E1A970"/>
<stop offset="0.3055" stop-color="#F0BB85"/>
<stop offset="0.3169" stop-color="#F5C28D"/>
<stop offset="0.3191" stop-color="#F6C48F"/>
<stop offset="0.3432" stop-color="#FBD6A4"/>
<stop offset="0.3669" stop-color="#FEE1B1"/>
<stop offset="0.3894" stop-color="#FFE5B5"/>
<stop offset="0.4138" stop-color="#FEE1B0"/>
<stop offset="0.4409" stop-color="#FAD5A3"/>
<stop offset="0.4691" stop-color="#F3C28D"/>
<stop offset="0.4833" stop-color="#EFB67F"/>
<stop offset="0.6094" stop-color="#C58446"/>
<stop offset="0.7461" stop-color="#9A520C"/>
<stop offset="0.7597" stop-color="#AA6522"/>
<stop offset="0.7946" stop-color="#CF9154"/>
<stop offset="0.821" stop-color="#E6AC73"/>
<stop offset="0.8357" stop-color="#EFB67F"/>
<stop offset="1" stop-color="#EFB67F"/>
</linearGradient>
<linearGradient id="paint1_linear_487_506" x1="-2.82376e-05" y1="21.4613" x2="14.0161" y2="21.4613" gradientUnits="userSpaceOnUse">
<stop stop-color="#B66B29"/>
<stop offset="0.0674" stop-color="#BF7731"/>
<stop offset="0.19" stop-color="#D89845"/>
<stop offset="0.3494" stop-color="#FFCB64"/>
<stop offset="0.4031" stop-color="#FFCD69"/>
<stop offset="0.4638" stop-color="#FFD176"/>
<stop offset="0.5277" stop-color="#FFD88D"/>
<stop offset="0.5936" stop-color="#FFE3AC"/>
<stop offset="0.6235" stop-color="#FFE8BD"/>
<stop offset="0.6792" stop-color="#FFDC98"/>
<stop offset="0.7612" stop-color="#FFCB64"/>
<stop offset="0.7905" stop-color="#F0B758"/>
<stop offset="0.8489" stop-color="#D79644"/>
<stop offset="0.9047" stop-color="#C57E35"/>
<stop offset="0.9564" stop-color="#BA702C"/>
<stop offset="1" stop-color="#B66B29"/>
</linearGradient>
<linearGradient id="paint2_linear_487_506" x1="9.66692" y1="16.9031" x2="38.3322" y2="16.9031" gradientUnits="userSpaceOnUse">
<stop offset="0.0458" stop-color="#F5C28D"/>
<stop offset="0.0874" stop-color="#DEAA71"/>
<stop offset="0.1296" stop-color="#CE985C"/>
<stop offset="0.1711" stop-color="#C38D4F"/>
<stop offset="0.2106" stop-color="#C0894B"/>
<stop offset="0.2651" stop-color="#DAAE76"/>
<stop offset="0.3177" stop-color="#EECC98"/>
<stop offset="0.361" stop-color="#FADEAD"/>
<stop offset="0.3894" stop-color="#FFE5B5"/>
<stop offset="0.4533" stop-color="#FEE1B0"/>
<stop offset="0.5242" stop-color="#FAD5A3"/>
<stop offset="0.5981" stop-color="#F3C28D"/>
<stop offset="0.6353" stop-color="#EFB67F"/>
<stop offset="0.6885" stop-color="#C58446"/>
<stop offset="0.7461" stop-color="#9A520C"/>
<stop offset="0.7597" stop-color="#AA6522"/>
<stop offset="0.7946" stop-color="#CF9154"/>
<stop offset="0.821" stop-color="#E6AC73"/>
<stop offset="0.8357" stop-color="#EFB67F"/>
<stop offset="1" stop-color="#EFB67F"/>
</linearGradient>
<linearGradient id="paint3_linear_487_506" x1="5.97565" y1="24.2762" x2="38.1528" y2="24.2762" gradientUnits="userSpaceOnUse">
<stop offset="0.0458" stop-color="#F5C28D"/>
<stop offset="0.0874" stop-color="#DEAA71"/>
<stop offset="0.1296" stop-color="#CE985C"/>
<stop offset="0.1711" stop-color="#C38D4F"/>
<stop offset="0.2106" stop-color="#C0894B"/>
<stop offset="0.2651" stop-color="#DAAE76"/>
<stop offset="0.3177" stop-color="#EECC98"/>
<stop offset="0.361" stop-color="#FADEAD"/>
<stop offset="0.3894" stop-color="#FFE5B5"/>
<stop offset="0.4533" stop-color="#FEE1B0"/>
<stop offset="0.5242" stop-color="#FAD5A3"/>
<stop offset="0.5981" stop-color="#F3C28D"/>
<stop offset="0.6353" stop-color="#EFB67F"/>
<stop offset="0.6885" stop-color="#C58446"/>
<stop offset="0.7461" stop-color="#9A520C"/>
<stop offset="0.7597" stop-color="#AA6522"/>
<stop offset="0.7946" stop-color="#CF9154"/>
<stop offset="0.821" stop-color="#E6AC73"/>
<stop offset="0.8357" stop-color="#EFB67F"/>
<stop offset="1" stop-color="#EFB67F"/>
</linearGradient>
<linearGradient id="paint4_linear_487_506" x1="6.42685" y1="21.3028" x2="43.2352" y2="21.3028" gradientUnits="userSpaceOnUse">
<stop offset="0.0458" stop-color="#F5C28D"/>
<stop offset="0.0874" stop-color="#DEAA71"/>
<stop offset="0.1296" stop-color="#CE985C"/>
<stop offset="0.1711" stop-color="#C38D4F"/>
<stop offset="0.2106" stop-color="#C0894B"/>
<stop offset="0.2651" stop-color="#DAAE76"/>
<stop offset="0.3177" stop-color="#EECC98"/>
<stop offset="0.361" stop-color="#FADEAD"/>
<stop offset="0.3894" stop-color="#FFE5B5"/>
<stop offset="0.4533" stop-color="#FEE1B0"/>
<stop offset="0.5242" stop-color="#FAD5A3"/>
<stop offset="0.5981" stop-color="#F3C28D"/>
<stop offset="0.6353" stop-color="#EFB67F"/>
<stop offset="0.6885" stop-color="#C58446"/>
<stop offset="0.7461" stop-color="#9A520C"/>
<stop offset="0.7597" stop-color="#AA6522"/>
<stop offset="0.7946" stop-color="#CF9154"/>
<stop offset="0.821" stop-color="#E6AC73"/>
<stop offset="0.8357" stop-color="#EFB67F"/>
<stop offset="1" stop-color="#EFB67F"/>
</linearGradient>
</defs>
</svg>
