<svg width="580" height="73" viewBox="0 0 580 73" fill="none" xmlns="http://www.w3.org/2000/svg">
<path d="M67.4136 56.3379L67.3849 56.5959C67.3419 56.8968 67.3132 57.2193 67.3132 57.5704C67.3061 57.9215 67.3061 58.2368 67.3061 58.5235V60.8094H70.4662V58.5235C70.4662 58.201 70.459 57.8499 70.4376 57.4701C70.4161 57.0903 70.3946 56.7177 70.3659 56.3379H73.1462C73.1247 56.4597 73.1104 56.56 73.1104 56.6317C73.1032 56.7033 73.1032 56.7822 73.1032 56.8753C73.0961 56.9685 73.0817 57.0903 73.0746 57.2408C73.0674 57.3913 73.0531 57.5704 73.0316 57.7711C73.0244 57.943 73.0173 58.0935 73.0173 58.2082C73.0173 58.33 73.0173 58.4375 73.0173 58.5163V65.1662C73.0173 65.5245 73.0244 65.8685 73.0388 66.2053C73.0531 66.5421 73.0817 66.9147 73.1247 67.3303H70.3802C70.4017 66.972 70.4232 66.5994 70.4376 66.2124C70.459 65.8255 70.4662 65.4672 70.4662 65.1519V62.2855H67.3061V65.1519C67.3061 65.3669 67.3132 65.632 67.3204 65.9473C67.3276 66.2626 67.3491 66.5492 67.3706 66.8144C67.3706 66.9003 67.3706 66.9792 67.3777 67.0437C67.3849 67.1153 67.3921 67.2085 67.3992 67.3375H64.6547C64.6977 66.9577 64.7192 66.5922 64.7335 66.2339C64.7479 65.8756 64.755 65.5173 64.755 65.1734V58.5235C64.755 58.4303 64.755 58.33 64.7479 58.2082C64.7407 58.0864 64.7335 57.943 64.7264 57.7782C64.7049 57.3841 64.6905 57.0831 64.6834 56.8753C64.6762 56.7893 64.669 56.7033 64.669 56.6317C64.669 56.56 64.6619 56.4669 64.6404 56.3379H67.4136Z" fill="white"/>
<path d="M81.7448 61.6609C81.7233 61.3385 81.5657 61.0805 81.2647 60.887C80.9637 60.6935 80.5911 60.5932 80.1468 60.5932C79.8172 60.5932 79.4947 60.6505 79.1651 60.758C78.8426 60.8727 78.4628 61.059 78.0401 61.317V59.5828C78.4843 59.4968 78.8856 59.4395 79.2296 59.4037C79.5735 59.3678 79.9533 59.3535 80.3546 59.3535C81.5083 59.3535 82.4112 59.5685 83.0705 59.9984C83.7297 60.4284 84.0594 61.0303 84.0594 61.7899V65.2008C84.0594 65.5018 84.0665 65.7598 84.0809 65.9748C84.0952 66.1897 84.1239 66.4119 84.1597 66.6197C84.1812 66.7272 84.2027 66.8275 84.217 66.9206C84.2313 67.0138 84.2672 67.1428 84.3102 67.3219H81.9096C81.8595 67.2073 81.8308 67.1141 81.8236 67.0281C81.8165 66.9493 81.8093 66.8347 81.8093 66.6913C81.5083 66.978 81.2002 67.1786 80.8849 67.3004C80.5696 67.4223 80.2041 67.4867 79.7885 67.4867C79.0504 67.4867 78.4628 67.2789 78.0186 66.8633C77.5743 66.4477 77.345 65.9031 77.345 65.2223C77.345 64.5846 77.5384 64.04 77.9326 63.5957C78.3267 63.1514 78.9501 62.7645 79.8172 62.4205C80.1611 62.2772 80.4693 62.1625 80.7487 62.0837C81.0282 62.0049 81.365 61.9189 81.752 61.8401L81.7448 61.6609ZM81.8021 62.9006C81.6588 62.9938 81.5442 63.0583 81.4653 63.1012C81.3865 63.1442 81.3077 63.1872 81.236 63.2374L80.6556 63.5312C79.8745 63.9253 79.4876 64.4341 79.4876 65.0575C79.4876 65.38 79.595 65.6451 79.81 65.8529C80.025 66.0607 80.2973 66.1682 80.6269 66.1682C80.8419 66.1682 81.0425 66.1324 81.2217 66.0607C81.408 65.9891 81.6015 65.8673 81.8021 65.6953V62.9006Z" fill="white"/>
<path d="M91.0968 59.5913C91.1613 59.7274 91.2043 59.8492 91.2258 59.9424C91.2473 60.0427 91.2545 60.1717 91.2545 60.3365V60.3795C91.4551 60.0284 91.7059 59.7776 91.9997 59.6271C92.2935 59.4695 92.6447 59.3906 93.0531 59.3906C93.0818 59.3906 93.1176 59.3906 93.1606 59.3906C93.2036 59.3906 93.2466 59.3978 93.2967 59.405V61.1749C93.2036 61.1534 93.1248 61.1391 93.0531 61.1248C92.9814 61.1104 92.9026 61.1033 92.8238 61.1033C92.3365 61.1033 91.9639 61.2681 91.6988 61.6049C91.4336 61.9345 91.2975 62.4074 91.2975 63.0094V65.1448C91.2975 65.5031 91.3118 65.8614 91.3333 66.2197C91.3548 66.578 91.3835 66.9506 91.4121 67.3232H88.9041C88.9327 66.9578 88.9614 66.5636 88.9757 66.1552C88.9972 65.7467 89.0044 65.4028 89.0044 65.1448V61.8055C89.0044 61.5404 88.9972 61.2896 88.9829 61.0674C88.9686 60.8453 88.9542 60.6375 88.9327 60.444C88.9041 60.315 88.8754 60.1932 88.8468 60.0785C88.8181 59.9639 88.7751 59.7991 88.7178 59.5841H91.0968V59.5913Z" fill="white"/>
<path d="M97.0441 66.3987C97.0728 66.2626 97.0943 66.1049 97.1158 65.933C97.1373 65.761 97.1444 65.5818 97.1516 65.4027C97.1588 65.2164 97.1588 65.0086 97.1588 64.7649V58.5378C97.1588 58.459 97.1588 58.3587 97.1588 58.244C97.1588 58.1222 97.1516 57.9717 97.1444 57.7926C97.1444 57.6277 97.1444 57.4844 97.1373 57.3626C97.1301 57.2408 97.1301 57.1261 97.1229 57.0186C97.1158 56.9112 97.1086 56.8108 97.1014 56.7033C97.0943 56.603 97.0799 56.4812 97.0728 56.3379H99.4948V60.0426C99.7958 59.8062 100.068 59.6413 100.319 59.541C100.57 59.4407 100.871 59.3905 101.207 59.3905C101.637 59.3905 102.024 59.4765 102.375 59.6557C102.727 59.8348 103.028 60.0856 103.271 60.4153C103.522 60.7449 103.708 61.1462 103.837 61.612C103.966 62.0777 104.038 62.6008 104.038 63.1813C104.038 63.8334 103.952 64.421 103.787 64.9512C103.622 65.4815 103.379 65.933 103.063 66.3127C102.748 66.6925 102.375 66.9863 101.938 67.1941C101.501 67.402 101.014 67.5094 100.484 67.5094C100.039 67.5094 99.6668 67.4521 99.373 67.3518C99.0792 67.2443 98.7711 67.0508 98.4486 66.7714L97.6962 67.4091L96.908 66.9577C96.9653 66.7212 97.0154 66.5421 97.0441 66.3987ZM99.4877 61.3898V65.0659C99.4877 65.9115 99.7886 66.3342 100.391 66.3342C101.272 66.3342 101.716 65.374 101.716 63.4536C101.716 62.5578 101.616 61.8986 101.422 61.483C101.229 61.0602 100.921 60.8524 100.505 60.8524C100.154 60.8452 99.8173 61.0244 99.4877 61.3898Z" fill="white"/>
<path d="M108.094 61.7762C108.266 61.2746 108.503 60.8446 108.818 60.4935C109.134 60.1424 109.513 59.8772 109.958 59.6838C110.402 59.4975 110.903 59.4043 111.462 59.4043C112.021 59.4043 112.523 59.4975 112.967 59.6838C113.412 59.8701 113.784 60.1424 114.092 60.4935C114.4 60.8446 114.644 61.2674 114.809 61.7762C114.981 62.2778 115.06 62.8439 115.06 63.4602C115.06 64.0836 114.974 64.6425 114.809 65.1441C114.637 65.6457 114.4 66.0685 114.092 66.4268C113.784 66.7779 113.404 67.0503 112.967 67.2366C112.523 67.4229 112.021 67.516 111.462 67.516C110.903 67.516 110.402 67.4229 109.958 67.2366C109.513 67.0503 109.134 66.7779 108.818 66.4268C108.503 66.0757 108.259 65.6457 108.094 65.1441C107.923 64.6425 107.844 64.0836 107.844 63.4602C107.837 62.8439 107.923 62.285 108.094 61.7762ZM110.531 61.3534C110.337 61.8049 110.237 62.5071 110.237 63.4673C110.237 65.3304 110.646 66.262 111.462 66.262C112.279 66.262 112.681 65.3304 112.681 63.4673C112.681 62.5071 112.58 61.8049 112.38 61.3534C112.179 60.902 111.871 60.6726 111.455 60.6726C111.04 60.6726 110.732 60.902 110.531 61.3534Z" fill="white"/>
<path d="M121.802 59.5781C121.759 60.0941 121.73 60.5527 121.702 60.9611C121.68 61.3696 121.666 61.6706 121.666 61.864V64.9597C121.666 65.3323 121.745 65.6046 121.902 65.7766C122.06 65.9486 122.318 66.0346 122.676 66.0346C122.92 66.0346 123.121 65.9844 123.285 65.8912C123.45 65.7981 123.629 65.6118 123.83 65.3395V61.8927C123.83 61.6132 123.83 61.3696 123.83 61.1761C123.83 60.9826 123.823 60.8035 123.816 60.6315C123.808 60.4595 123.794 60.2947 123.787 60.1371C123.78 59.9794 123.765 59.7859 123.744 59.5781H126.302C126.281 59.8146 126.266 59.9937 126.259 60.1156C126.252 60.2445 126.231 60.395 126.216 60.567C126.188 61.0758 126.173 61.5201 126.173 61.907V65.0958C126.173 65.4899 126.18 65.8554 126.195 66.1779C126.209 66.5003 126.238 66.8873 126.274 67.3244H123.844V66.5935C123.5 66.8945 123.164 67.1238 122.82 67.2814C122.483 67.4319 122.124 67.5107 121.759 67.5107C121.451 67.5107 121.143 67.4534 120.827 67.3531C120.512 67.2456 120.247 67.1094 120.032 66.9303C119.788 66.7368 119.616 66.486 119.509 66.185C119.401 65.8769 119.351 65.4828 119.351 64.9955V61.8999C119.351 61.6634 119.351 61.4412 119.351 61.2119C119.351 60.9755 119.344 60.7533 119.323 60.5384C119.315 60.3735 119.301 60.2302 119.294 60.1084C119.287 59.9866 119.272 59.8074 119.251 59.5781H121.802Z" fill="white"/>
<path d="M133.218 59.5913C133.282 59.7274 133.325 59.8492 133.347 59.9424C133.368 60.0427 133.375 60.1717 133.375 60.3365V60.3795C133.576 60.0284 133.827 59.7776 134.12 59.6271C134.414 59.4695 134.765 59.3906 135.174 59.3906C135.202 59.3906 135.238 59.3906 135.274 59.3906C135.317 59.3906 135.36 59.3978 135.41 59.405V61.1749C135.317 61.1534 135.238 61.1391 135.167 61.1248C135.095 61.1104 135.016 61.1033 134.937 61.1033C134.45 61.1033 134.077 61.2681 133.812 61.6049C133.547 61.9345 133.411 62.4074 133.411 63.0094V65.1448C133.411 65.5031 133.425 65.8614 133.447 66.2197C133.468 66.578 133.497 66.9506 133.526 67.3232H131.018C131.046 66.9578 131.075 66.5636 131.089 66.1552C131.111 65.7467 131.118 65.4028 131.118 65.1448V61.8055C131.118 61.5404 131.111 61.2896 131.096 61.0674C131.082 60.8453 131.068 60.6375 131.046 60.444C131.018 60.315 130.989 60.1932 130.96 60.0785C130.932 59.9639 130.889 59.7991 130.831 59.5841H133.218V59.5913Z" fill="white"/>
<path d="M148.123 56.3379L148.187 56.5672C148.288 56.947 148.367 57.2766 148.438 57.5704C148.503 57.8642 148.596 58.1795 148.703 58.5235L150.488 64.1558L152.337 58.5235C152.444 58.1795 152.551 57.8212 152.659 57.4414C152.766 57.0616 152.86 56.6962 152.946 56.3379H154.694C154.644 56.4597 154.608 56.56 154.587 56.6317C154.565 56.7033 154.536 56.7822 154.486 56.8753C154.436 56.9971 154.386 57.1405 154.329 57.2909C154.271 57.4414 154.221 57.5919 154.171 57.7496C154.121 57.9 154.071 58.0505 154.02 58.1867C153.97 58.3228 153.927 58.4375 153.899 58.5235L151.226 66.4847L151.52 67.3446H148.897L145.973 58.5306C145.937 58.4017 145.851 58.1508 145.715 57.7854C145.601 57.4773 145.5 57.2193 145.414 57.0115C145.328 56.8037 145.242 56.5815 145.149 56.3522H148.123V56.3379Z" fill="white"/>
<path d="M160.713 61.6609C160.691 61.3385 160.533 61.0805 160.232 60.887C159.931 60.6935 159.559 60.5932 159.115 60.5932C158.785 60.5932 158.463 60.6505 158.133 60.758C157.81 60.8727 157.431 61.059 157.008 61.317V59.5828C157.452 59.4968 157.853 59.4395 158.197 59.4037C158.548 59.3678 158.921 59.3535 159.322 59.3535C160.476 59.3535 161.379 59.5685 162.038 59.9984C162.698 60.4284 163.027 61.0303 163.027 61.7899V65.2008C163.027 65.5018 163.034 65.7598 163.049 65.9748C163.063 66.1897 163.092 66.4119 163.127 66.6197C163.149 66.7272 163.17 66.8275 163.185 66.9206C163.199 67.0138 163.235 67.1428 163.278 67.3219H160.877C160.827 67.2073 160.799 67.1141 160.784 67.0281C160.777 66.9493 160.77 66.8347 160.77 66.6913C160.469 66.978 160.161 67.1786 159.846 67.3004C159.53 67.4223 159.165 67.4867 158.749 67.4867C158.011 67.4867 157.423 67.2789 156.979 66.8633C156.535 66.4477 156.313 65.9031 156.313 65.2223C156.313 64.5846 156.506 64.04 156.9 63.5957C157.294 63.1514 157.918 62.7645 158.785 62.4205C159.129 62.2772 159.437 62.1625 159.717 62.0837C159.996 62.0049 160.333 61.9189 160.72 61.8401L160.713 61.6609ZM160.777 62.9006C160.634 62.9938 160.519 63.0583 160.44 63.1012C160.361 63.1442 160.283 63.1872 160.211 63.2374L159.631 63.5312C158.849 63.9253 158.462 64.4341 158.462 65.0575C158.462 65.38 158.57 65.6451 158.785 65.8529C159 66.0607 159.272 66.1682 159.602 66.1682C159.817 66.1682 160.01 66.1324 160.197 66.0607C160.383 65.9891 160.576 65.8673 160.777 65.6953V62.9006Z" fill="white"/>
<path d="M167.786 66.0607C167.807 65.6809 167.814 65.3226 167.814 64.9858V61.8114C167.814 61.4459 167.807 61.0876 167.793 60.7365C167.779 60.3854 167.75 60.0056 167.714 59.5828H170.143V60.2994C170.817 59.6975 171.491 59.3965 172.186 59.3965C172.522 59.3965 172.852 59.4466 173.167 59.5541C173.483 59.6616 173.755 59.7978 173.977 59.9769C174.214 60.1776 174.378 60.4284 174.486 60.7222C174.593 61.016 174.643 61.4101 174.643 61.8974V65.0073C174.643 65.2438 174.643 65.466 174.651 65.6953C174.658 65.9174 174.665 66.1395 174.672 66.3617C174.679 66.5265 174.694 66.6698 174.701 66.7916C174.708 66.9135 174.729 67.0926 174.744 67.3219H172.2L172.214 66.9851C172.221 66.7916 172.236 66.5982 172.243 66.3975C172.25 66.1969 172.264 66.0106 172.286 65.8314C172.3 65.6523 172.315 65.4946 172.329 65.3585C172.336 65.2223 172.343 65.1148 172.343 65.036V61.926C172.343 61.2094 172.006 60.844 171.333 60.844C171.089 60.844 170.881 60.8941 170.709 61.0016C170.537 61.1091 170.358 61.2954 170.165 61.5534V65.0002C170.165 65.2796 170.165 65.5233 170.165 65.7311C170.165 65.9246 170.172 66.1037 170.179 66.2614C170.186 66.4262 170.201 66.5838 170.208 66.7486C170.215 66.9135 170.229 67.0998 170.251 67.3147H167.693C167.728 66.8705 167.764 66.4477 167.786 66.0607Z" fill="white"/>
<path d="M186.76 66.9003C186.767 66.7714 186.775 66.6567 186.782 66.5492C186.789 66.4417 186.789 66.3414 186.796 66.2339C186.803 66.1336 186.81 66.0189 186.818 65.8971L186.832 65.7036L186.846 65.1519V58.5163C186.846 58.1365 186.839 57.7854 186.825 57.4486C186.81 57.1118 186.782 56.7392 186.746 56.3379H190.272C191.87 56.3379 193.088 56.818 193.919 57.7711C194.75 58.7241 195.173 60.1071 195.173 61.9057C195.173 63.0953 194.951 64.12 194.499 64.9799C194.048 65.8398 193.396 66.4847 192.543 66.9075C192.278 67.0437 191.963 67.1511 191.583 67.2228C191.203 67.2945 190.795 67.3303 190.35 67.3303H186.739C186.739 67.1726 186.746 67.0293 186.76 66.9003ZM190.408 65.8971C190.78 65.8971 191.103 65.8183 191.382 65.6535C191.655 65.4887 191.884 65.2379 192.056 64.8867C192.228 64.5356 192.357 64.0913 192.436 63.5467C192.514 63.0021 192.557 62.3429 192.557 61.569C192.557 60.6231 192.464 59.8635 192.271 59.2974C192.077 58.7313 191.776 58.3013 191.361 58.0075C191.239 57.9215 191.067 57.857 190.859 57.8141C190.651 57.7711 190.422 57.7496 190.164 57.7496H189.397V65.9043H190.408V65.8971Z" fill="white"/>
<path d="M199.229 61.7762C199.401 61.2746 199.638 60.8446 199.953 60.4935C200.268 60.1424 200.648 59.8772 201.092 59.6838C201.537 59.4975 202.038 59.4043 202.597 59.4043C203.156 59.4043 203.658 59.4975 204.102 59.6838C204.546 59.8701 204.919 60.1424 205.227 60.4935C205.535 60.8446 205.779 61.2674 205.944 61.7762C206.116 62.2778 206.195 62.8439 206.195 63.4602C206.195 64.0836 206.109 64.6425 205.944 65.1441C205.772 65.6457 205.535 66.0685 205.227 66.4268C204.919 66.7779 204.539 67.0503 204.102 67.2366C203.658 67.4229 203.156 67.516 202.597 67.516C202.038 67.516 201.537 67.4229 201.092 67.2366C200.648 67.0503 200.261 66.7779 199.953 66.4268C199.638 66.0757 199.394 65.6457 199.229 65.1441C199.057 64.6425 198.979 64.0836 198.979 63.4602C198.979 62.8439 199.057 62.285 199.229 61.7762ZM201.666 61.3534C201.472 61.8049 201.372 62.5071 201.372 63.4673C201.372 65.3304 201.78 66.262 202.597 66.262C203.414 66.262 203.815 65.3304 203.815 63.4673C203.815 62.5071 203.715 61.8049 203.514 61.3534C203.314 60.902 203.006 60.6726 202.59 60.6726C202.174 60.6726 201.866 60.902 201.666 61.3534Z" fill="white"/>
<path d="M210.501 66.0607C210.523 65.6809 210.53 65.3226 210.53 64.9858V61.8114C210.53 61.4459 210.523 61.0876 210.508 60.7365C210.494 60.3854 210.465 60.0056 210.429 59.5828H212.859V60.2994C213.532 59.6975 214.206 59.3965 214.901 59.3965C215.238 59.3965 215.567 59.4466 215.883 59.5541C216.198 59.6616 216.47 59.7978 216.692 59.9769C216.929 60.1776 217.094 60.4284 217.201 60.7222C217.309 61.016 217.359 61.4101 217.359 61.8974V65.0073C217.359 65.2438 217.359 65.466 217.366 65.6953C217.373 65.9246 217.38 66.1395 217.388 66.3617C217.395 66.5265 217.409 66.6698 217.416 66.7916C217.423 66.9135 217.445 67.0926 217.459 67.3219H214.915L214.93 66.9851C214.937 66.7916 214.951 66.5982 214.958 66.3975C214.965 66.1969 214.98 66.0106 215.001 65.8314C215.016 65.6523 215.03 65.4946 215.044 65.3585C215.059 65.2223 215.059 65.1148 215.059 65.036V61.926C215.059 61.2094 214.722 60.844 214.048 60.844C213.805 60.844 213.597 60.8941 213.425 61.0016C213.253 61.1091 213.074 61.2954 212.88 61.5534V65.0002C212.88 65.2796 212.88 65.5233 212.88 65.7311C212.88 65.9246 212.887 66.1037 212.895 66.2614C212.902 66.4262 212.916 66.5838 212.923 66.7486C212.93 66.9135 212.945 67.0998 212.966 67.3147H210.408C210.444 66.8705 210.48 66.4477 210.501 66.0607Z" fill="white"/>
<path d="M32.7165 38.5299C32.9888 38.2074 33.211 37.928 33.3758 37.67C33.5406 37.412 33.6553 37.1612 33.6553 36.8818C33.6553 36.7026 33.5979 36.5306 33.4976 36.373C33.3543 36.1508 33.0748 35.9574 32.7165 35.9574C32.6162 35.9574 32.5087 35.9717 32.4084 36.0075C32.3439 36.0219 32.2293 36.0649 32.0716 36.1723C31.8351 36.33 31.4338 36.6453 30.6098 37.3834C29.7857 38.1214 28.5317 39.2823 26.5969 41.1096C23.3078 44.2196 19.6102 46.8423 15.6117 48.8917C12.3584 50.5614 9.82165 51.3926 8.07318 51.3854C7.71489 51.3854 7.39243 51.3496 7.09863 51.2851H7.09146H7.0843C5.90193 51.0558 5.06353 50.5327 4.49026 49.68C3.91699 48.8272 3.62319 47.6234 3.62319 46.0397C3.62319 45.5166 3.65186 44.9577 3.71635 44.3629C4.1893 39.9201 6.37488 35.0688 10.2229 29.9452C12.8456 26.4698 16.1061 23.3455 19.9112 20.6654C23.6876 18.0069 26.8979 16.4878 29.4059 16.1366C29.628 16.108 29.8287 16.0936 30.0222 16.0936C30.8964 16.1008 31.4625 16.3659 31.8638 16.9177C32.0214 17.1399 32.1146 17.448 32.1146 17.8708C32.1146 18.573 31.8495 19.5547 31.312 20.7443C30.2443 23.0803 28.847 25.1226 27.1487 26.8209C26.3246 27.645 25.78 28.1466 25.4145 28.4547C25.3214 28.1896 25.1709 27.9603 24.9488 27.817C24.7768 27.6951 24.5618 27.6307 24.3468 27.6307C24.2465 27.6307 24.1462 27.645 24.0459 27.6665H24.0387H24.0315C23.1931 27.9173 22.4335 28.684 21.5593 30.0169C20.8141 31.1634 20.4343 32.0376 20.4271 32.7757C20.4271 32.9119 20.4414 33.048 20.4701 33.177V33.1842C20.5633 33.6571 20.7567 34.1372 21.0362 34.6317C21.2153 34.947 21.5235 35.162 21.8818 35.2264C21.9534 35.2408 22.0251 35.2408 22.0967 35.2408C22.455 35.2408 22.8205 35.1046 23.2433 34.8538C23.6661 34.603 24.1462 34.2232 24.7266 33.7001C26.6542 31.923 28.804 29.4436 31.1257 26.3121C33.4474 23.1807 34.6513 20.214 34.6513 17.4695C34.6513 17.3835 34.6513 17.2903 34.6441 17.2043C34.6011 16.0865 34.2859 15.1549 33.7054 14.467C33.125 13.7791 32.2722 13.3491 31.226 13.1843C30.7818 13.1126 30.316 13.084 29.843 13.084C28.331 13.084 26.6757 13.4279 24.8986 14.1015C20.986 15.5777 16.9087 18.2004 12.7811 21.8908C8.64645 25.5884 5.40032 29.7374 3.14308 34.2304C1.51644 37.5338 0.649368 40.78 0.592041 43.8971C0.592041 44.0118 0.592041 44.1336 0.592041 44.2482C0.592041 47.2436 1.2728 49.7731 2.63431 51.7509C3.88833 53.614 5.70129 54.5742 7.93703 54.5671C8.41715 54.5671 8.91875 54.5241 9.44186 54.4381C12.1792 53.9866 15.0456 52.8114 17.9764 50.9626C20.8499 49.1425 23.6732 47.0358 26.3604 44.6854C29.0404 42.3493 31.1759 40.2855 32.7165 38.5299Z" fill="white"/>
<path d="M37.5247 34.0033L37.5628 33.9805L37.5247 34.0033Z" fill="white"/>
<path d="M47.0266 38.3798C47.3275 38.086 47.5425 37.8495 47.693 37.6274C47.8506 37.4052 47.9438 37.1974 47.9725 36.9753C47.9796 36.9251 47.9796 36.875 47.9796 36.8248C47.9796 36.4235 47.7575 36.1369 47.521 35.9936C47.3705 35.9004 47.2057 35.8646 47.0552 35.8646C46.6253 35.8718 46.3243 36.1297 46.181 36.23C45.8514 36.4809 45.3211 36.9753 44.5257 37.7635C43.7661 38.516 42.8919 39.3615 41.903 40.3074C40.9428 41.2246 39.7532 42.2279 38.3846 43.2812C38.1696 43.4461 37.9976 43.5607 37.8543 43.6539C37.9904 42.9373 38.3057 42.1562 38.8288 41.3178C39.2946 40.5725 39.6099 40.1211 39.8177 39.8631C40.0184 39.6052 40.1187 39.5263 40.1187 39.5263C40.2763 39.4188 40.477 39.2684 40.6418 39.0677C40.8066 38.8671 40.9499 38.6019 40.9643 38.2795V38.2222C40.9643 37.957 40.8854 37.7062 40.735 37.5056C40.5845 37.3049 40.3623 37.1544 40.1115 37.0828C40.0685 37.0685 39.9109 37.0183 39.4809 36.8463L40.1832 36.2085C40.348 36.0509 40.5486 35.8503 40.7135 35.6066C40.8783 35.363 41.0073 35.062 41.0073 34.7252L41.0001 34.5891C40.9786 34.3454 40.8353 33.894 40.3265 33.5858C40.047 33.421 39.7389 33.335 39.4021 33.3422C38.8432 33.3422 38.2341 33.5644 37.5462 33.9728C36.5214 34.5819 35.9338 35.5995 35.8693 36.8391C35.7834 36.9466 35.5899 37.1688 35.1814 37.5844C34.5938 38.1863 34.0421 38.7524 33.5261 39.2899C33.2968 39.5335 33.0962 39.7413 32.9457 39.9563C32.7952 40.1713 32.6805 40.3934 32.6805 40.6514C32.6805 40.7804 32.7092 40.9093 32.7665 41.0312L32.7737 41.0383L32.9958 41.4468L33.0747 41.5973L33.6551 41.5686C34.0564 41.5471 34.4147 41.3393 34.8303 40.9667C35.0954 40.7302 35.9553 39.9491 37.3455 38.6736C37.3957 38.6879 37.4602 38.7094 37.5462 38.7381C36.0342 40.6442 35.1241 42.2135 34.7945 43.532C34.6655 44.0552 34.601 44.4994 34.601 44.9007C34.601 45.3593 34.6941 45.7606 34.8948 46.0831C35.1169 46.4414 35.4681 46.6922 35.8765 46.7782C36.0198 46.814 36.1703 46.8283 36.328 46.8283C37.152 46.8212 38.0764 46.3841 39.1728 45.5528C40.3193 44.6857 41.817 43.3601 43.63 41.6188C45.4644 39.8918 46.5894 38.8098 47.0266 38.3798Z" fill="white"/>
<path d="M62.9641 36.9614C63.0787 36.8252 63.1575 36.732 63.2077 36.6819L63.2579 36.6246L63.2722 36.6102C63.4155 36.5099 63.5517 36.3881 63.6592 36.2089C63.7738 36.0226 63.8455 35.779 63.8455 35.5067C63.8455 35.1412 63.7308 34.7184 63.4585 34.2025C63.394 34.0735 63.2579 33.8227 63.0501 33.6006C62.8423 33.3784 62.5413 33.1491 62.1328 33.1491H62.1113H62.1042H62.097C61.968 33.1491 61.7889 33.185 61.5954 33.2924C61.4162 33.3928 61.2371 33.5719 61.0938 33.837C60.2912 34.9621 58.6287 36.8037 56.1637 39.2831C53.8348 41.6263 52.1651 43.1741 51.2193 43.8836C51.3339 43.0165 51.986 41.655 53.1684 39.9065C54.4081 38.0721 55.6191 36.4669 56.7656 35.1341L56.9949 34.8689L57.0952 34.7543L56.9376 34.2813C56.9161 34.2025 56.8659 34.1093 56.7943 34.0019C56.7155 33.8872 56.608 33.7439 56.4145 33.5146C56.1995 33.2494 55.8842 33.099 55.5403 33.0918H55.5188H55.5116C55.2178 33.0918 54.924 33.1921 54.6302 33.3856C54.3364 33.5791 54.0354 33.8514 53.6915 34.2312C52.1651 35.8506 50.8323 37.7854 49.7288 39.9925C49.0193 41.4113 48.661 42.694 48.661 43.8191C48.661 44.5643 48.8187 45.2379 49.1412 45.8255C49.3776 46.4203 49.8076 46.6926 50.1157 46.7857C50.2662 46.8359 50.4167 46.8574 50.5743 46.8574C51.0043 46.8574 51.4414 46.6854 51.9143 46.3773H51.9215H51.9287C52.8889 45.7037 53.9781 44.765 55.1891 43.5754C54.1644 45.2021 53.1254 46.8144 52.0505 48.398C49.7073 51.852 47.493 55.2558 45.4292 58.5592L45.4221 58.5735L45.4149 58.5879C45.2358 58.9605 45.1498 59.3618 45.1498 59.7774C45.1498 60.3578 45.3146 60.9669 45.6371 61.6119C45.7947 61.9343 45.9667 62.264 46.1888 62.5291C46.4038 62.7942 46.7048 63.0092 47.0917 63.0092H47.0989H47.1705H47.1777H47.1849C47.2924 63.002 47.4644 62.9662 47.6435 62.8444C47.8226 62.7297 47.9946 62.5219 48.0878 62.2138C49.22 58.8673 51.1118 54.9691 53.713 50.6481C56.3357 46.2913 59.03 42.2283 61.7101 38.5737C62.3406 37.7209 62.7276 37.2408 62.9641 36.9614Z" fill="white"/>
<path d="M73.6767 41.555L73.4116 41.512L73.6767 41.555C73.6839 41.512 73.6911 41.4619 73.6911 41.3974C73.6911 41.2612 73.6624 41.0892 73.5692 40.9029C73.4761 40.7166 73.3113 40.5375 73.0676 40.387L73.0533 40.3798L72.9172 40.3153L72.9028 40.3082L72.8885 40.301C72.8455 40.2867 72.7595 40.258 72.6449 40.2437C72.523 40.2293 72.3582 40.2222 72.1002 40.2222C71.8208 40.2222 71.4195 40.2365 70.8606 40.2652C70.8176 39.914 70.7531 39.5486 70.6599 39.176C70.5238 38.6385 70.4306 38.1584 70.3733 37.7285C70.3518 37.5923 70.3446 37.4562 70.3446 37.3272C70.3446 36.9044 70.4521 36.5318 70.6742 36.1663C70.8964 35.8008 71.2332 35.4497 71.7061 35.1201C72.7953 34.3462 73.7341 33.9664 74.4865 33.9664C74.551 33.9664 74.6083 33.9664 74.6656 33.9735H74.6728H74.6799H74.7301C75.1242 33.9735 75.4754 33.8661 75.7405 33.6153C75.9196 33.4504 76.1275 33.128 76.1203 32.6622C76.1203 32.1391 75.8408 31.8238 75.6688 31.6948C75.418 31.5013 75.1386 31.4512 74.9093 31.4512C74.6585 31.4512 74.4578 31.5085 74.3646 31.5372C72.7953 31.9743 71.2618 32.6335 69.8143 33.4934C68.9903 33.9807 68.3597 34.6328 67.9441 35.4282C67.5284 36.2236 67.3206 37.1695 67.3206 38.2301V38.2946C67.3206 38.832 67.3923 39.4053 67.5356 40C67.6073 40.3153 67.6503 40.6235 67.6789 40.9101C66.7115 41.2039 65.694 41.6482 64.6549 42.2501C63.3651 42.9953 62.3045 44.0487 61.5163 45.3744H61.502L61.4446 45.4891L61.4375 45.5034L61.4303 45.5177C61.2082 46.1197 61.0935 46.6643 61.0935 47.173C61.0935 47.7678 61.2583 48.2981 61.588 48.7352C62.0394 49.33 62.7417 49.6238 63.5801 49.6238C63.924 49.6238 64.2966 49.5736 64.6979 49.4876C65.9663 49.1938 67.2131 48.3697 68.5245 47.0011C69.7427 45.7327 70.5094 44.2207 70.8176 42.5009C70.9967 42.4722 71.183 42.4579 71.398 42.4579H72.6663C72.9172 42.4579 73.1536 42.3648 73.3328 42.2071C73.5262 42.028 73.6409 41.8058 73.6767 41.555ZM64.1175 47.1085C63.924 47.1874 63.6875 47.2519 63.5442 47.2447C63.5156 47.2447 63.4941 47.2375 63.4797 47.2375C63.5084 47.0799 63.6231 46.7216 64.0458 46.0767C64.44 45.4819 65.1279 44.8585 66.0953 44.2565C66.5396 43.9771 66.9552 43.7478 67.335 43.5543C67.0555 44.3139 66.6829 44.9588 66.2171 45.4819C65.4503 46.3275 64.7338 46.8721 64.1175 47.1085Z" fill="white"/>
<path d="M90.595 29.6969C91.7989 29.7399 92.6588 29.8044 93.1031 29.8832C93.2177 29.9047 93.3396 29.919 93.447 29.919C93.7552 29.919 94.049 29.8259 94.2854 29.6539C94.5219 29.4819 94.7011 29.2239 94.8085 28.923C94.873 28.7367 94.9017 28.5575 94.9017 28.3999C94.9017 28.1132 94.8014 27.8911 94.7011 27.7406C94.5434 27.5113 94.1995 27.239 93.6405 27.2462H93.6333L88.8107 27.3107L93.0744 22.0724V22.0653C93.2894 21.7786 93.5044 21.3487 93.4972 20.7754C93.4972 20.4888 93.447 20.1735 93.318 19.8295C93.2321 19.593 93.1317 19.3422 92.9669 19.1201C92.8093 18.8979 92.5728 18.7045 92.2575 18.6471C92.193 18.6328 92.1285 18.6328 92.0712 18.6328C91.7846 18.6328 91.5194 18.7546 91.3403 18.9553L91.2615 19.0341C91.1468 19.1631 90.9103 19.4712 90.0576 20.6536C89.2192 21.8216 87.7932 23.8352 85.3425 27.3393C84.8265 27.3465 84.3249 27.3465 83.852 27.3465C83.3074 27.3465 82.7986 27.3393 82.3113 27.3321C81.1576 27.3178 80.6847 27.2533 80.4625 27.2103H80.4554H80.4482C80.355 27.196 80.2619 27.1888 80.1687 27.1888C79.7961 27.1888 79.4521 27.3107 79.2157 27.5686C79.0509 27.7406 78.8789 28.0344 78.8789 28.4572C78.8789 28.5503 78.886 28.6435 78.9004 28.7438C78.9505 29.052 79.0867 29.3672 79.3447 29.6109C79.5955 29.8545 79.9681 30.0122 80.4267 30.0122C80.5199 30.0122 80.6202 30.005 80.7205 29.9907H80.7277C81.4156 29.8904 82.4045 29.8044 83.6872 29.7399C82.0963 32.0616 80.4912 34.4478 78.9004 36.8484C76.9728 39.7577 75.4894 41.9791 74.3501 43.6344C74.1279 43.9569 73.7625 44.4872 73.4543 45.0819C73.1462 45.6767 72.8811 46.3431 72.8811 46.9809C72.8739 47.4682 73.0602 47.9626 73.5045 48.2994C73.7338 48.4786 73.9559 48.629 74.1781 48.7437C74.4002 48.8583 74.6295 48.93 74.866 48.93C74.9735 48.93 75.081 48.9157 75.1885 48.8798C75.5038 48.7795 75.7546 48.5359 75.8549 48.2206C76.9226 45.0748 78.5636 41.8 80.7205 38.4894C82.8488 35.2361 84.9483 32.2622 86.9834 29.6324C88.2375 29.6324 89.4557 29.6539 90.595 29.6969Z" fill="white"/>
<path d="M100.398 38.0856C100.735 37.7774 100.936 37.3976 100.95 36.9749L100.685 36.9605L100.95 36.9749V36.9175C100.95 36.4518 100.699 36.1723 100.542 36.0576C100.427 35.9716 100.226 35.8642 99.9539 35.8642C99.8249 35.8642 99.6888 35.8857 99.5455 35.943L99.4093 35.9931L99.352 36.0146L99.2087 36.1651C98.8146 36.5879 97.8758 37.498 96.4427 38.8523C95.3893 39.8484 94.558 40.5936 93.9704 41.0737C94.0636 40.8014 94.1783 40.5005 94.3216 40.1637C94.6297 39.4399 95.031 38.6803 95.4824 37.9709C95.7261 37.6628 95.8121 37.3475 95.8121 37.1038C95.8121 37.0465 95.8049 36.9964 95.8049 36.9462C95.7834 36.7527 95.6902 36.5019 95.4753 36.2654C95.7762 35.3984 95.9339 34.689 95.9339 34.1014C95.9339 33.5854 95.8049 33.1411 95.5183 32.8187C95.3033 32.5679 94.902 32.3027 94.3144 32.3027C94.1353 32.3027 93.9418 32.3242 93.734 32.3744C92.265 32.7184 90.7028 33.6857 88.9329 35.3052C87.213 36.8817 85.787 38.752 84.6907 40.8516C84.1246 41.9336 83.8953 42.8652 83.8953 43.6678C83.8953 45.0508 84.5904 45.9967 85.3069 46.5699L85.3141 46.5771C85.5147 46.7491 85.7512 46.8351 85.9805 46.8351C86.3102 46.8351 86.604 46.6918 86.8548 46.5341C87.1056 46.3765 87.3277 46.183 87.4925 46.0468C88.0729 45.5524 88.6892 44.9576 89.327 44.2912C89.7426 43.8541 90.151 43.4098 90.5523 42.9727C90.5523 43.2951 90.581 43.6033 90.6312 43.8971C90.6957 44.2697 90.839 44.5563 91.0109 44.7498C91.1829 44.9505 91.3907 45.0651 91.5627 45.1224C91.6989 45.1726 91.8494 45.1941 91.9998 45.1941C92.3223 45.1941 92.6519 45.0866 92.9959 44.8931C93.3398 44.6996 93.7053 44.413 94.1209 44.0332C94.7515 43.46 95.6687 42.6144 96.8798 41.4893C98.098 40.3571 99.2947 39.2106 100.398 38.0856ZM92.4155 35.3984C92.9601 34.9326 93.2252 34.8968 93.2754 34.9039H93.2897H93.304L93.3614 34.9541C93.3614 34.9684 93.3685 34.9828 93.3685 35.0258C93.3685 35.1906 93.2754 35.6563 92.7093 36.5521C91.9497 37.7631 91.0253 38.9956 89.9504 40.1995C88.9472 41.3317 87.9798 42.2848 87.0697 43.0587C87.1629 42.8509 87.2632 42.6216 87.3994 42.3564C88.0371 41.0594 88.8182 39.748 89.7283 38.4654C90.6097 37.197 91.5197 36.1651 92.4155 35.3984Z" fill="white"/>
<path d="M119.596 18.4593C119.596 18.0007 119.459 17.6496 119.266 17.4059C119.065 17.1623 118.822 17.0333 118.621 16.9616C118.463 16.9043 118.306 16.8828 118.148 16.8828C117.811 16.8828 117.482 16.9975 117.123 17.1766C116.765 17.3558 116.364 17.6137 115.891 17.929C115.318 18.316 114.064 19.3479 112.53 20.9387C110.997 22.5223 109.184 24.6434 107.528 27.1873C106.382 28.9501 105.257 30.5409 104.117 32.4542C103.021 34.2887 102.175 36.1159 101.358 37.6208C100.85 38.5667 100.305 39.921 99.6817 41.7841C99.3879 42.6655 99.2374 43.4466 99.2302 44.1417C99.2302 45.0876 99.5312 45.883 100.147 46.4348L100.155 46.4419L100.162 46.4491C100.513 46.7286 100.929 46.8361 101.33 46.8361C101.975 46.8361 102.605 46.5781 103.157 46.2843C103.702 45.9905 104.16 45.6537 104.418 45.4674C105.78 44.4212 107.206 43.1026 108.66 41.5477C110.072 40.0428 111.212 38.882 112.028 38.1152C112.444 37.7498 112.587 37.3485 112.587 37.026C112.587 36.8612 112.552 36.725 112.516 36.6175C112.401 36.2879 112.179 36.0228 111.871 35.9081C111.763 35.8651 111.649 35.8436 111.534 35.8436C111.369 35.8436 111.212 35.8866 111.061 35.9655C111.025 35.987 110.961 36.0228 110.882 36.0944C110.645 36.3023 110.065 36.8899 107.879 39.1901C106.031 41.1392 104.418 42.5867 103.1 43.5039C102.82 43.6974 102.613 43.8121 102.462 43.8909C102.462 43.8407 102.469 43.7834 102.476 43.7189C102.548 43.1958 102.656 42.6655 102.806 42.1568C102.956 41.6408 103.193 41.0102 103.501 40.2936C103.781 39.6487 104.225 39.0109 104.812 38.409C105.465 37.7426 106.726 36.6175 108.295 34.9551C109.85 33.3069 111.699 31.5943 113.54 29.3586C114.995 27.5456 116.177 25.7756 117.338 23.7907C118.385 22.0136 119.029 20.7309 119.388 19.613C119.538 19.1544 119.596 18.7818 119.596 18.4593ZM116.851 19.8996C116.027 21.5334 114.393 24.5288 112.057 27.4238C110.681 29.1292 109.212 30.7917 107.586 32.3969C107.356 32.619 106.683 33.3428 106.009 34.0665C105.923 34.1597 105.837 34.2457 105.758 34.3388C106.296 33.3643 106.998 32.2034 107.707 31.0784C108.897 29.1937 110.115 27.4094 110.552 26.8505C111.928 25.102 113.426 23.4969 114.436 22.3145C114.959 21.6983 115.705 20.9602 116.371 20.3439C116.536 20.1791 116.701 20.0358 116.851 19.8996Z" fill="white"/>
<path d="M189.118 38.1009C189.534 37.7354 189.677 37.3341 189.677 37.0117C189.677 36.8469 189.641 36.7107 189.606 36.6032C189.491 36.2736 189.269 36.0085 188.961 35.8938C188.853 35.8508 188.739 35.8293 188.624 35.8293C188.459 35.8293 188.301 35.8723 188.151 35.9511C188.115 35.9726 188.051 36.0085 187.979 36.0801C187.742 36.2879 187.162 36.8755 184.976 39.1758C183.128 41.1249 181.515 42.5724 180.197 43.4896C179.917 43.6831 179.71 43.7977 179.559 43.8766C179.559 43.8264 179.559 43.7691 179.573 43.7046C179.645 43.1815 179.753 42.6512 179.903 42.1424C180.054 41.6265 180.29 40.9959 180.598 40.2793C180.878 39.6344 181.322 38.9966 181.909 38.3947C182.562 37.7283 183.823 36.6032 185.392 34.9407C186.947 33.2926 188.796 31.58 190.637 29.3442C192.092 27.5313 193.275 25.7613 194.435 23.7764C195.482 21.9992 196.127 20.7165 196.485 19.5987C196.628 19.1544 196.693 18.7818 196.693 18.4593C196.693 18.0007 196.556 17.6496 196.363 17.4059C196.162 17.1623 195.919 17.0333 195.718 16.9616C195.56 16.9043 195.403 16.8828 195.245 16.8828C194.908 16.8828 194.579 16.9975 194.22 17.1766C193.862 17.3558 193.461 17.6137 192.988 17.929C192.415 18.316 191.168 19.3479 189.627 20.9387C188.094 22.5223 186.281 24.6506 184.625 27.1873C183.479 28.9501 182.361 30.5409 181.214 32.4542C180.118 34.2887 179.272 36.1159 178.456 37.6208C177.947 38.5667 177.402 39.921 176.779 41.7841C176.485 42.6655 176.334 43.4466 176.334 44.1417C176.334 45.0876 176.635 45.883 177.252 46.4348L177.259 46.4419L177.266 46.4491C177.617 46.7286 178.033 46.8361 178.434 46.8361C179.079 46.8361 179.71 46.5781 180.261 46.2843C180.806 45.9905 181.265 45.6537 181.523 45.4674C182.884 44.4212 184.31 43.1026 185.765 41.5477C187.155 40.0285 188.301 38.8676 189.118 38.1009ZM182.476 34.9407C182.576 34.7544 182.683 34.5681 182.805 34.3746C184.303 31.8308 186.718 28.3553 187.348 27.4453C188.789 25.3672 190.645 23.3321 191.677 22.1855C192.379 21.3973 193.067 20.7739 193.604 20.3224C192.737 21.9419 191.024 24.9301 189.154 27.4238C187.843 29.1722 186.094 31.1285 184.539 32.8197C184.152 33.2353 183.429 33.9805 182.755 34.6684C182.655 34.7544 182.562 34.8476 182.476 34.9407Z" fill="white"/>
<path d="M173.396 32.2237C172.887 31.7794 172.192 31.5286 171.361 31.4713C171.26 31.4641 171.16 31.4641 171.06 31.4641C169.598 31.4641 168.029 32.1449 166.251 33.4849C166.058 33.6353 165.872 33.793 165.685 33.9506C165.943 33.6712 166.044 33.3774 166.044 33.1409C166.044 32.9833 166.008 32.8471 165.965 32.754C165.829 32.4172 165.535 32.2237 165.27 32.1377C164.997 32.0517 164.725 32.0374 164.517 32.0374C164.46 32.0374 164.417 32.0374 164.374 32.0374L160.691 32.0732C161.816 30.3391 163.163 28.3183 164.704 26.0396C166.595 23.2449 168.107 21.1883 169.197 19.9343C169.842 19.1818 170.307 18.6802 170.558 18.4509H170.565C170.83 18.2001 171.074 17.7988 171.074 17.2542C171.074 16.8529 170.945 16.3943 170.637 15.8569L170.408 15.993L170.637 15.8569C170.501 15.6204 170.329 15.3553 170.107 15.1403C169.885 14.9253 169.591 14.7462 169.225 14.739H169.211C169.082 14.739 168.903 14.7605 168.724 14.8537C168.545 14.9468 168.365 15.1045 168.222 15.3409C167.154 17.1754 165.47 19.9056 163.22 23.467C161.049 26.8995 159.172 29.7945 157.617 32.0875L150.687 32.1234C153.231 28.2036 155.539 24.678 157.545 21.6326C159.745 18.3004 161.3 16.122 162.124 15.212C162.446 14.868 162.762 14.3306 162.762 13.5925C162.762 13.2485 162.69 12.8687 162.532 12.4459C162.389 12.0805 162.203 11.8297 161.988 11.6649C161.78 11.5001 161.551 11.4356 161.372 11.4212L161.264 11.4141C160.848 11.4141 160.504 11.6219 160.232 11.8727C159.96 12.1306 159.738 12.4459 159.559 12.7397C158.555 14.3521 156.943 16.9963 154.779 20.615C152.665 24.1478 150.25 28.0173 147.627 32.1234C144.783 32.1305 142.074 32.1377 139.509 32.1377C138.147 32.1377 136.821 32.1377 135.531 32.1305C131.784 32.1234 129.226 32.0732 127.95 31.9872H127.943H127.936C127.706 31.9729 127.491 31.9657 127.298 31.9657C126.832 31.9657 126.46 32.0087 126.151 32.109C125.843 32.2093 125.592 32.3813 125.428 32.6178C125.334 32.7468 125.22 32.9761 125.22 33.2842C125.22 33.4419 125.256 33.621 125.334 33.8073C125.549 34.3089 125.987 34.6027 126.467 34.7532C126.947 34.9109 127.491 34.9539 128.007 34.9539C128.251 34.9539 128.48 34.9467 128.702 34.9324C130.953 34.832 133.769 34.7389 137.079 34.6744C139.967 34.6171 142.97 34.5812 146.022 34.5597C143.622 38.157 141.622 40.9158 140.089 42.7503C138.047 45.1437 136.012 47.0355 134.048 48.3827C132.486 49.4504 130.995 49.9735 129.605 49.9735C129.333 49.9735 129.061 49.952 128.796 49.9162C127.033 49.651 125.42 48.6406 123.994 46.8707C122.497 45.0147 121.508 43.3522 121.042 41.9692C120.963 41.7328 120.863 41.4461 120.684 41.1882C120.505 40.9302 120.24 40.6937 119.86 40.6292C119.802 40.622 119.745 40.6149 119.673 40.6149C119.351 40.6077 118.935 40.7725 118.599 41.2311C118.212 41.7543 118.011 42.3275 118.011 42.9295C118.011 43.0871 118.025 43.2447 118.054 43.4024C118.642 46.6772 120.412 49.4145 123.285 51.4998C125.098 52.8255 126.99 53.4991 128.917 53.4991C130.107 53.4991 131.304 53.2411 132.507 52.7323C134.098 52.0516 135.732 50.948 137.359 49.4575C138.957 48.0029 140.562 46.2974 142.146 44.3841C143.149 43.1444 144.166 41.8187 145.162 40.4429C146.151 39.0742 147.491 37.075 149.154 34.5167L156.026 34.5526C153.926 37.856 152.206 40.5361 150.881 42.5927C149.419 44.8499 148.358 46.3977 147.728 47.1931C146.746 48.4543 146.223 49.651 146.223 50.7689C146.223 51.1487 146.28 51.5213 146.402 51.8796C146.459 52.0516 146.574 52.3812 146.775 52.6893C146.875 52.8398 147.004 52.9903 147.176 53.1121C147.341 53.2268 147.549 53.3128 147.785 53.3199H147.828C148.05 53.3199 148.244 53.2483 148.409 53.1479C148.652 52.9903 148.824 52.7753 148.953 52.5675C149.082 52.3597 149.168 52.1591 149.218 52.0372L149.225 52.0229L149.268 51.8653L149.276 51.8509V51.8366C149.283 51.7793 149.369 51.4711 149.749 50.6829C150.128 49.8875 150.809 48.5976 151.999 46.5124C153.754 43.4311 156.155 39.4182 159.129 34.5812L163.364 34.6601C163.493 34.6672 163.614 34.6744 163.729 34.6744C164.381 34.6744 164.94 34.5239 165.377 34.2086C164.56 34.9324 163.801 35.7493 163.113 36.645C162.188 37.8417 161.486 38.9524 161.028 39.97C160.297 41.3458 159.931 42.8076 159.931 44.3053V44.4056C159.938 45.2655 160.139 46.0179 160.54 46.627C160.934 47.2361 161.529 47.6876 162.274 47.967C162.747 48.1462 163.242 48.2322 163.743 48.2322C164.761 48.2322 165.814 47.8667 166.882 47.1716C168.351 46.2042 169.727 44.8427 170.967 43.1301C172.192 41.439 173.109 39.8195 173.675 38.3146C174.141 37.0893 174.378 35.9356 174.378 34.8679C174.378 34.5884 174.363 34.3161 174.327 34.0438C174.22 33.3057 173.905 32.668 173.396 32.2237ZM162.905 43.8897C163.063 42.435 163.908 40.6292 165.449 38.5583C167.011 36.4587 168.315 35.0972 169.275 34.5382C169.942 34.1441 170.522 33.9578 170.995 33.9578C171.16 33.9578 171.311 33.9793 171.454 34.0223C171.547 34.051 171.626 34.0725 171.719 34.1943C171.812 34.3161 171.927 34.5741 171.927 35.1115C171.927 35.219 171.92 35.3265 171.912 35.4555C171.834 36.5948 171.232 38.1498 170.114 40.0273C168.989 41.9262 167.742 43.4239 166.423 44.4773C165.313 45.3658 164.374 45.7886 163.665 45.7815C163.579 45.7815 163.493 45.7743 163.414 45.7671C163.299 45.7528 163.206 45.7385 163.098 45.6238C162.991 45.5092 162.862 45.2297 162.862 44.6134C162.855 44.4128 162.869 44.1691 162.905 43.8897Z" fill="white"/>
<path d="M199.516 38.0995C199.967 37.6982 200.125 37.2754 200.125 36.9315C200.125 36.824 200.111 36.7165 200.089 36.6305C200.003 36.2937 199.767 36.0142 199.444 35.8996C199.337 35.8637 199.222 35.8422 199.107 35.8422C198.835 35.8422 198.57 35.9497 198.326 36.136L198.319 36.1432L198.226 36.2292L198.219 36.2364L198.212 36.2435C197.631 36.8741 196.334 38.1067 194.385 39.891C192.887 41.2596 191.719 42.2557 190.91 42.8648C191.203 42.1195 191.691 41.2095 192.386 40.1633C193.597 38.3216 194.184 37.8559 194.342 37.7842H194.349H194.356H194.364C194.507 37.7054 194.708 37.5692 194.879 37.3471C195.051 37.1249 195.188 36.8096 195.188 36.4155C195.188 36.1432 195.123 35.8351 194.98 35.4911C194.973 35.484 194.965 35.4625 194.965 35.4481C195.388 35.4481 195.811 35.2618 196.255 34.9322C196.707 34.5954 197.194 34.1009 197.746 33.4202C198.161 32.9114 198.47 32.3811 198.656 31.8437C198.742 31.5857 198.785 31.3564 198.785 31.1486C198.785 30.7688 198.649 30.475 198.491 30.2744C198.326 30.0737 198.147 29.9663 198.047 29.9161L198.032 29.9089L197.925 29.8659L197.918 29.8588H197.911C197.753 29.8086 197.595 29.7871 197.445 29.7871C197.101 29.7871 196.778 29.9018 196.499 30.0666C195.661 30.5682 195.066 31.5427 194.815 31.944C194.163 33.0261 193.84 33.714 193.833 34.3016C193.833 34.3661 193.848 34.4306 193.855 34.4879C193.848 34.4879 193.848 34.4879 193.84 34.4879H193.776C193.547 34.4879 193.324 34.5596 193.131 34.6957C192.945 34.8247 192.787 35.011 192.658 35.2403C191.87 36.48 190.845 38.0708 189.584 40.0128C188.244 42.0694 187.57 43.7247 187.57 45.1292V45.1865V45.1937V45.2008C187.599 45.5448 187.671 45.8458 187.8 46.0966C187.929 46.3474 188.129 46.548 188.373 46.6698C188.545 46.7558 188.738 46.7988 188.932 46.7988C189.29 46.7988 189.648 46.6627 190.014 46.419C190.738 45.9389 192.085 44.8354 194.17 43.0224C196.184 41.2525 197.997 39.5828 199.516 38.0995Z" fill="white"/>
<path d="M217.48 37.9721L217.488 37.9577C217.595 37.8216 217.932 37.4346 217.939 36.9044C217.939 36.7754 217.917 36.6321 217.86 36.4959C217.738 36.1734 217.459 35.9441 217.129 35.8868C217.079 35.8796 217.022 35.8725 216.972 35.8725C216.692 35.8725 216.463 35.9943 216.298 36.1161C216.14 36.2379 216.033 36.3669 215.968 36.4457C215.345 37.0763 214.378 38.0079 213.095 39.2189C212.163 40.1003 211.361 40.8026 210.716 41.3042C211.21 40.086 212.02 38.5525 213.124 36.7324C214.349 34.7331 215.839 32.5905 217.545 30.3691C219.272 28.119 220.612 26.4207 221.522 25.3244C222.418 24.2351 223.106 23.4827 223.55 23.0958C224.073 22.63 224.403 22.3147 224.61 22.0639V22.0567V22.0496C224.818 21.7773 225.012 21.376 225.012 20.86C225.012 20.5376 224.933 20.1721 224.747 19.778C224.653 19.5773 224.524 19.348 224.352 19.1474C224.173 18.9468 223.93 18.7748 223.614 18.7318L223.478 18.7246C223.149 18.7246 222.833 18.8894 222.597 19.1761L222.59 19.1832L222.582 19.1904C221.572 20.6092 220.554 22.0352 219.53 23.4612C218.505 24.8872 217.538 26.2201 216.635 27.4598C215.725 28.7066 214.886 29.8747 214.127 30.9567C213.539 31.7951 212.952 32.6263 212.357 33.4576C211.877 33.2283 211.296 33.1065 210.608 33.085H210.601H210.594C208.502 33.1638 206.474 33.995 204.582 35.5285C202.74 37.019 201.3 38.7388 200.332 40.6306C199.68 41.856 199.336 42.9093 199.336 43.8337C199.336 44.2923 199.422 44.7151 199.594 45.1021C200.003 46.0121 200.877 46.5998 202.088 46.8721C202.174 46.8936 202.267 46.9007 202.353 46.9007C202.64 46.9007 202.934 46.8004 203.242 46.6141C203.557 46.4278 203.901 46.1626 204.302 45.7972C205.026 45.1451 205.786 44.407 206.567 43.5973C206.825 43.3321 207.068 43.0741 207.312 42.8233C207.269 43.1601 207.24 43.4826 207.24 43.8051V43.9484C207.248 44.3712 207.348 44.6936 207.505 44.9373C207.663 45.1737 207.864 45.3171 208.043 45.3959C208.208 45.4675 208.387 45.5034 208.573 45.5034C208.917 45.5034 209.275 45.3816 209.67 45.1522C210.064 44.9229 210.501 44.5933 211.002 44.1419C211.633 43.5686 212.471 42.7875 213.525 41.7915C214.578 40.7954 215.875 39.5414 217.473 37.9721H217.48ZM202.568 43.8767C202.583 43.6976 202.611 43.5041 202.654 43.2891C203.005 41.5908 203.994 39.871 205.628 38.1799C207.226 36.5246 208.896 35.6575 210.594 35.5572C210.637 35.5572 210.666 35.5572 210.701 35.55C209.763 36.8327 208.43 38.3519 206.732 40.0717C204.983 41.856 203.571 43.1315 202.568 43.8767Z" fill="white"/>
<path d="M232.314 38.0849C232.643 37.7768 232.851 37.397 232.866 36.9742V36.9169C232.866 36.4511 232.615 36.1716 232.457 36.057C232.342 35.971 232.142 35.8635 231.87 35.8635C231.741 35.8635 231.604 35.885 231.461 35.9423L231.325 35.9925L231.268 36.014L231.124 36.1645C230.73 36.5873 229.791 37.4973 228.358 38.8517C227.305 39.8477 226.474 40.593 225.886 41.0731C225.979 40.8008 226.094 40.4998 226.237 40.163C226.538 39.4393 226.947 38.6797 227.398 37.9703C227.642 37.6621 227.728 37.3468 227.728 37.1032C227.728 37.0459 227.721 36.9957 227.721 36.9456C227.699 36.7521 227.606 36.5013 227.391 36.2576C227.692 35.3906 227.85 34.6811 227.85 34.0936C227.85 33.5776 227.721 33.1333 227.434 32.8109C227.219 32.5601 226.818 32.2949 226.23 32.2949C226.051 32.2949 225.857 32.3164 225.65 32.3666C224.181 32.7105 222.618 33.6779 220.848 35.2974C219.129 36.8739 217.703 38.7442 216.599 40.8438C216.033 41.9258 215.804 42.8574 215.804 43.66C215.804 45.043 216.499 45.9889 217.215 46.5621L217.223 46.5693C217.423 46.7413 217.66 46.8273 217.889 46.8273C218.219 46.8273 218.512 46.6839 218.763 46.5263C219.014 46.3686 219.236 46.1752 219.401 46.039C219.974 45.5446 220.598 44.957 221.235 44.2834C221.651 43.8463 222.059 43.402 222.461 42.9649C222.461 43.2873 222.489 43.5955 222.54 43.8893C222.604 44.2619 222.747 44.5485 222.919 44.742C223.091 44.9426 223.299 45.0573 223.471 45.1146C223.614 45.1648 223.758 45.1863 223.908 45.1863C224.231 45.1863 224.56 45.0788 224.904 44.8853C225.248 44.6918 225.614 44.4052 226.029 44.0254C226.653 43.4521 227.577 42.6066 228.788 41.4815C230.014 40.3565 231.203 39.21 232.314 38.0849ZM224.324 35.3977C224.869 34.932 225.141 34.8961 225.184 34.9033H225.198H225.212L225.27 34.9534C225.27 34.9678 225.277 34.9821 225.277 35.0251C225.277 35.1899 225.184 35.6557 224.618 36.5514C223.858 37.7625 222.934 38.995 221.859 40.1988C220.856 41.3311 219.888 42.2841 218.978 43.058C219.071 42.8502 219.172 42.6209 219.308 42.3486C219.946 41.0516 220.727 39.7402 221.637 38.4575C222.518 37.1964 223.428 36.1645 224.324 35.3977Z" fill="white"/>
<path d="M245.428 36.9601C245.542 36.8239 245.621 36.7308 245.671 36.6806L245.721 36.6233L245.736 36.6089C245.879 36.5086 246.015 36.3868 246.123 36.2076C246.237 36.0213 246.309 35.7777 246.309 35.5054C246.309 35.1399 246.194 34.7172 245.922 34.2012C245.858 34.0794 245.729 33.8286 245.528 33.5993C245.327 33.37 245.034 33.1478 244.632 33.1407H244.568H244.553C244.424 33.1478 244.252 33.1765 244.066 33.2768C243.887 33.3771 243.708 33.5563 243.565 33.8214C242.762 34.9465 241.099 36.7881 238.634 39.2675C236.306 41.6107 234.636 43.1585 233.69 43.8679C233.805 43.0009 234.457 41.6394 235.639 39.8909C236.879 38.0564 238.09 36.4513 239.236 35.1184L239.466 34.8533L239.566 34.7386L239.408 34.2657C239.387 34.1869 239.337 34.0937 239.265 33.9862C239.186 33.8716 239.079 33.7354 238.885 33.499C238.67 33.2338 238.348 33.0833 238.011 33.0762H237.99H237.982C237.689 33.0762 237.395 33.1765 237.101 33.37C236.807 33.5634 236.506 33.8358 236.162 34.2155C234.636 35.835 233.303 37.7698 232.199 39.9769C231.49 41.3957 231.132 42.6712 231.132 43.8034C231.132 44.5487 231.289 45.2223 231.612 45.8099C231.848 46.4046 232.278 46.6769 232.586 46.7701C232.737 46.8203 232.887 46.8418 233.045 46.8418C233.475 46.8418 233.912 46.6698 234.392 46.3616H234.399H234.407C235.367 45.6881 236.456 44.7493 237.667 43.5598C236.642 45.1865 235.603 46.7988 234.528 48.3824C232.185 51.8364 229.971 55.2401 227.907 58.5436L227.9 58.5579L227.893 58.5723C227.714 58.9449 227.628 59.3462 227.628 59.7618C227.628 60.3422 227.793 60.9513 228.115 61.5962C228.273 61.9187 228.445 62.2483 228.667 62.5135C228.882 62.7786 229.183 62.9936 229.57 62.9936H229.577H229.648H229.656H229.663C229.77 62.9864 229.942 62.9506 230.121 62.8288C230.301 62.7141 230.473 62.5063 230.566 62.1982C231.698 58.8517 233.59 54.9535 236.191 50.6325C238.814 46.2757 241.508 42.2126 244.188 38.558C244.811 37.7196 245.198 37.2395 245.428 36.9601Z" fill="white"/>
<path d="M258.14 31.6792L257.975 31.8942L258.14 31.6792C257.889 31.4857 257.61 31.4355 257.373 31.4355C257.122 31.4355 256.922 31.4929 256.829 31.5215C255.259 31.9587 253.726 32.6179 252.278 33.4778C251.454 33.9651 250.824 34.6172 250.408 35.4126C249.992 36.2152 249.784 37.1539 249.784 38.2144V38.2789C249.784 38.8164 249.856 39.3896 249.999 39.9844C250.071 40.2997 250.114 40.6078 250.143 40.8945C249.175 41.1883 248.158 41.6325 247.112 42.2345C245.822 42.9797 244.761 44.0331 243.973 45.3588L243.966 45.366L243.908 45.4806L243.901 45.4949L243.894 45.5093C243.672 46.1112 243.557 46.6558 243.557 47.1646C243.557 47.7593 243.722 48.2896 244.052 48.7267C244.503 49.3215 245.206 49.6153 246.044 49.6153C246.388 49.6153 246.761 49.5651 247.162 49.4792C248.43 49.1854 249.677 48.3613 250.988 46.9926C252.207 45.7242 252.973 44.2123 253.281 42.4924C253.461 42.4638 253.647 42.4495 253.862 42.4495H255.13C255.381 42.4495 255.618 42.3563 255.797 42.1986C255.976 42.041 256.09 41.8117 256.126 41.5609C256.133 41.5179 256.141 41.4677 256.141 41.4032C256.141 41.2671 256.112 41.0951 256.019 40.9088C255.926 40.7225 255.761 40.5433 255.517 40.3929L255.503 40.3857L255.367 40.3212L255.352 40.314L255.338 40.3069C255.295 40.2925 255.209 40.2639 255.094 40.2495C254.973 40.2352 254.808 40.228 254.55 40.228C254.27 40.228 253.869 40.2424 253.31 40.271C253.267 39.9199 253.203 39.5545 253.109 39.1747C252.973 38.6372 252.88 38.1571 252.823 37.7272C252.801 37.591 252.794 37.4549 252.794 37.3259C252.794 36.9031 252.902 36.5305 253.124 36.165C253.346 35.7995 253.683 35.4484 254.156 35.1188C255.245 34.3449 256.184 33.9651 256.936 33.9651C257.001 33.9651 257.058 33.9651 257.115 33.9723H257.122H257.129H257.172C257.559 33.9723 257.918 33.8648 258.183 33.614C258.362 33.442 258.57 33.1267 258.563 32.6609C258.598 32.1235 258.312 31.8082 258.14 31.6792ZM246.51 46.0754C246.904 45.4806 247.592 44.8572 248.559 44.2552C249.003 43.9758 249.419 43.7465 249.799 43.553C249.519 44.3126 249.147 44.9575 248.681 45.4806C247.914 46.3262 247.205 46.8708 246.589 47.1073C246.395 47.1861 246.159 47.2506 246.015 47.2434C245.987 47.2434 245.965 47.2362 245.951 47.2362C245.972 47.0858 246.087 46.7275 246.51 46.0754Z" fill="white"/>
<path fill-rule="evenodd" clip-rule="evenodd" d="M276.556 4.08453C277.924 3.01682 283.571 0.852736 285.47 0C286.179 1.41884 289.712 7.92543 289.834 9.0433C289.884 9.53057 289.712 9.75272 289.304 9.95336C288.659 10.2687 287.749 10.2328 286.724 10.197C285.047 10.1325 283.084 10.0608 281.414 11.451C280.998 9.30843 279.436 8.11174 278.096 7.08702C277.279 6.46359 276.548 5.90466 276.255 5.25256C276.032 4.78678 276.147 4.40699 276.556 4.08453Z" fill="white"/>
<path fill-rule="evenodd" clip-rule="evenodd" d="M276.069 4.55078C276.047 4.60811 276.026 4.66543 276.004 4.72276C275.947 4.9449 275.976 5.2172 276.126 5.53967C276.957 7.3168 280.748 8.29135 281.271 11.8241C283.894 9.43072 287.441 11.0932 289.204 10.2476C289.426 10.1401 289.634 9.99682 289.77 9.78185C289.82 9.69586 289.841 9.63137 289.877 9.53821C289.856 9.63137 289.849 9.68153 289.806 9.76752C289.691 10.0183 289.49 10.2691 289.204 10.5844C286.323 13.7302 281.615 15.2279 279.186 17.7288C278.992 15.5504 276.155 9.77468 275.925 5.8048C275.904 5.37485 275.904 5.05239 275.976 4.78725C275.997 4.6941 276.026 4.63677 276.069 4.55078Z" fill="white"/>
<path fill-rule="evenodd" clip-rule="evenodd" d="M276.556 4.08453C277.924 3.01682 283.571 0.852736 285.47 0C286.179 1.41884 289.712 7.92543 289.834 9.0433C289.884 9.53057 289.712 9.75272 289.304 9.95336C288.659 10.2687 287.749 10.2328 286.724 10.197C285.047 10.1325 283.084 10.0608 281.414 11.451C280.998 9.30843 279.436 8.11174 278.096 7.08702C277.279 6.46359 276.548 5.90466 276.255 5.25256C276.032 4.78678 276.147 4.40699 276.556 4.08453Z" fill="white"/>
<path fill-rule="evenodd" clip-rule="evenodd" d="M276.069 4.55078C276.047 4.60811 276.026 4.66543 276.004 4.72276C275.947 4.9449 275.976 5.2172 276.126 5.53967C276.957 7.3168 280.748 8.29135 281.271 11.8241C283.894 9.43072 287.441 11.0932 289.204 10.2476C289.426 10.1401 289.634 9.99682 289.77 9.78185C289.82 9.69586 289.841 9.63137 289.877 9.53821C289.856 9.63137 289.849 9.68153 289.806 9.76752C289.691 10.0183 289.49 10.2691 289.204 10.5844C286.323 13.7302 281.615 15.2279 279.186 17.7288C278.992 15.5504 276.155 9.77468 275.925 5.8048C275.904 5.37485 275.904 5.05239 275.976 4.78725C275.997 4.6941 276.026 4.63677 276.069 4.55078Z" fill="white"/>
<path fill-rule="evenodd" clip-rule="evenodd" d="M292.549 12.935C293.982 13.9167 297.766 18.6605 299.149 20.2226C298.031 21.3405 292.979 26.7364 291.962 27.195C291.517 27.3956 291.252 27.2953 290.937 26.9657C290.442 26.4426 290.192 25.554 289.912 24.5651C289.454 22.9385 288.916 21.0324 287.089 19.8643C288.981 18.8038 289.633 16.9407 290.185 15.3355C290.521 14.361 290.822 13.4867 291.345 12.9995C291.725 12.6483 292.112 12.6412 292.549 12.935Z" fill="white"/>
<path fill-rule="evenodd" clip-rule="evenodd" d="M291.955 12.6132C291.891 12.6061 291.834 12.6061 291.769 12.6061C291.54 12.6204 291.296 12.7351 291.038 12.9787C289.619 14.3259 289.863 18.2599 286.703 19.8508C289.77 21.6279 289.297 25.5404 290.637 26.9736C290.802 27.1527 291.009 27.3104 291.253 27.3677C291.353 27.3892 291.418 27.3892 291.518 27.3892C291.425 27.3964 291.375 27.4036 291.282 27.3892C291.009 27.3534 290.716 27.2387 290.322 27.0668C286.466 25.2753 283.593 21.2194 280.49 19.6644C282.482 18.8045 287.061 14.3044 290.737 12.8569C291.138 12.7064 291.447 12.6061 291.712 12.5917C291.805 12.5846 291.862 12.5989 291.955 12.6132Z" fill="white"/>
<path fill-rule="evenodd" clip-rule="evenodd" d="M292.549 12.935C293.982 13.9167 297.766 18.6605 299.149 20.2226C298.031 21.3405 292.979 26.7364 291.962 27.195C291.517 27.3956 291.252 27.2953 290.937 26.9657C290.442 26.4426 290.192 25.554 289.912 24.5651C289.454 22.9385 288.916 21.0324 287.089 19.8643C288.981 18.8038 289.633 16.9407 290.185 15.3355C290.521 14.361 290.822 13.4867 291.345 12.9995C291.725 12.6483 292.112 12.6412 292.549 12.935Z" fill="white"/>
<path fill-rule="evenodd" clip-rule="evenodd" d="M291.955 12.6132C291.891 12.6061 291.834 12.6061 291.769 12.6061C291.54 12.6204 291.296 12.7351 291.038 12.9787C289.619 14.3259 289.863 18.2599 286.703 19.8508C289.77 21.6279 289.297 25.5404 290.637 26.9736C290.802 27.1527 291.009 27.3104 291.253 27.3677C291.353 27.3892 291.418 27.3892 291.518 27.3892C291.425 27.3964 291.375 27.4036 291.282 27.3892C291.009 27.3534 290.716 27.2387 290.322 27.0668C286.466 25.2753 283.593 21.2194 280.49 19.6644C282.482 18.8045 287.061 14.3044 290.737 12.8569C291.138 12.7064 291.447 12.6061 291.712 12.5917C291.805 12.5846 291.862 12.5989 291.955 12.6132Z" fill="white"/>
<path fill-rule="evenodd" clip-rule="evenodd" d="M289.175 30.9843C288.695 32.6611 285.406 37.7703 284.374 39.5833C282.969 38.8596 276.305 35.7137 275.553 34.8825C275.223 34.5171 275.237 34.2376 275.452 33.8291C275.789 33.1914 276.549 32.6754 277.394 32.1022C278.785 31.1563 280.411 30.0456 280.942 27.9316C282.532 29.415 284.496 29.4508 286.173 29.4795C287.197 29.4938 288.107 29.5153 288.738 29.8593C289.189 30.1029 289.318 30.4755 289.175 30.9843Z" fill="white"/>
<path fill-rule="evenodd" clip-rule="evenodd" d="M289.296 30.312C289.282 30.2547 289.268 30.1902 289.246 30.1329C289.16 29.9179 288.981 29.7173 288.666 29.5453C286.953 28.6066 283.32 30.0756 280.833 27.5388C280.117 31.0358 276.283 31.7954 275.352 33.5295C275.237 33.7445 275.151 33.9881 275.172 34.2389C275.18 34.3392 275.201 34.4037 275.23 34.4969C275.194 34.4109 275.172 34.3679 275.151 34.2676C275.101 34.0024 275.115 33.6728 275.158 33.25C275.638 29.0007 278.562 24.9806 279.063 21.5195C280.497 23.1605 286.165 26.1343 288.68 29.2013C288.945 29.5381 289.139 29.7961 289.239 30.0541C289.275 30.1615 289.282 30.2189 289.296 30.312Z" fill="white"/>
<path fill-rule="evenodd" clip-rule="evenodd" d="M289.175 30.9843C288.695 32.6611 285.406 37.7703 284.374 39.5833C282.969 38.8596 276.305 35.7137 275.553 34.8825C275.223 34.5171 275.237 34.2376 275.452 33.8291C275.789 33.1914 276.549 32.6754 277.394 32.1022C278.785 31.1563 280.411 30.0456 280.942 27.9316C282.532 29.415 284.496 29.4508 286.173 29.4795C287.197 29.4938 288.107 29.5153 288.738 29.8593C289.189 30.1029 289.318 30.4755 289.175 30.9843Z" fill="white"/>
<path fill-rule="evenodd" clip-rule="evenodd" d="M289.296 30.312C289.282 30.2547 289.268 30.1902 289.246 30.1329C289.16 29.9179 288.981 29.7173 288.666 29.5453C286.953 28.6066 283.32 30.0756 280.833 27.5388C280.117 31.0358 276.283 31.7954 275.352 33.5295C275.237 33.7445 275.151 33.9881 275.172 34.2389C275.18 34.3392 275.201 34.4037 275.23 34.4969C275.194 34.4109 275.172 34.3679 275.151 34.2676C275.101 34.0024 275.115 33.6728 275.158 33.25C275.638 29.0007 278.562 24.9806 279.063 21.5195C280.497 23.1605 286.165 26.1343 288.68 29.2013C288.945 29.5381 289.139 29.7961 289.239 30.0541C289.275 30.1615 289.282 30.2189 289.296 30.312Z" fill="white"/>
<path fill-rule="evenodd" clip-rule="evenodd" d="M271.211 33.4278C269.484 33.5066 263.629 31.9946 261.594 31.579C261.823 30.0097 262.662 22.636 263.206 21.6543C263.443 21.2243 263.715 21.1455 264.159 21.2243C264.862 21.339 265.593 21.9051 266.402 22.5285C267.735 23.5604 269.297 24.7571 271.454 24.5851C270.566 26.5772 271.16 28.4618 271.669 30.0742C271.977 31.0559 272.257 31.9373 272.128 32.6467C272.042 33.1626 271.734 33.4063 271.211 33.4278Z" fill="white"/>
<path fill-rule="evenodd" clip-rule="evenodd" d="M271.876 33.3339C271.927 33.298 271.977 33.2694 272.027 33.2264C272.199 33.0759 272.328 32.8394 272.392 32.4883C272.729 30.5464 270.193 27.551 271.783 24.3622C268.272 24.7922 266.33 21.3741 264.403 21.0373C264.166 20.9943 263.901 20.9943 263.679 21.0946C263.586 21.1304 263.528 21.1734 263.449 21.2379C263.521 21.1734 263.557 21.1376 263.643 21.0946C263.879 20.9585 264.188 20.8725 264.603 20.7721C268.752 19.8764 273.46 21.3884 276.878 20.765C275.789 22.6568 274.807 29.02 272.722 32.4023C272.493 32.7678 272.306 33.0329 272.099 33.2049C272.013 33.2622 271.962 33.2837 271.876 33.3339Z" fill="white"/>
<path fill-rule="evenodd" clip-rule="evenodd" d="M271.211 33.4278C269.484 33.5066 263.629 31.9946 261.594 31.579C261.823 30.0097 262.662 22.636 263.206 21.6543C263.443 21.2243 263.715 21.1455 264.159 21.2243C264.862 21.339 265.593 21.9051 266.402 22.5285C267.735 23.5604 269.297 24.7571 271.454 24.5851C270.566 26.5772 271.16 28.4618 271.669 30.0742C271.977 31.0559 272.257 31.9373 272.128 32.6467C272.042 33.1626 271.734 33.4063 271.211 33.4278Z" fill="white"/>
<path fill-rule="evenodd" clip-rule="evenodd" d="M271.876 33.3339C271.927 33.298 271.977 33.2694 272.027 33.2264C272.199 33.0759 272.328 32.8394 272.392 32.4883C272.729 30.5464 270.193 27.551 271.783 24.3622C268.272 24.7922 266.33 21.3741 264.403 21.0373C264.166 20.9943 263.901 20.9943 263.679 21.0946C263.586 21.1304 263.528 21.1734 263.449 21.2379C263.521 21.1734 263.557 21.1376 263.643 21.0946C263.879 20.9585 264.188 20.8725 264.603 20.7721C268.752 19.8764 273.46 21.3884 276.878 20.765C275.789 22.6568 274.807 29.02 272.722 32.4023C272.493 32.7678 272.306 33.0329 272.099 33.2049C272.013 33.2622 271.962 33.2837 271.876 33.3339Z" fill="white"/>
<path fill-rule="evenodd" clip-rule="evenodd" d="M263.22 16.6537C262.64 15.0127 262.367 8.92892 262.167 6.84366C263.729 6.60718 270.966 5.26 272.056 5.49648C272.536 5.5968 272.686 5.83327 272.744 6.29189C272.837 7.00847 272.521 7.86837 272.163 8.83576C271.576 10.4266 270.895 12.2754 271.683 14.3105C269.533 14.0382 267.921 15.156 266.538 16.1163C265.7 16.7039 264.94 17.227 264.231 17.3058C263.722 17.3774 263.399 17.1481 263.22 16.6537Z" fill="white"/>
<path fill-rule="evenodd" clip-rule="evenodd" d="M263.514 17.2623C263.564 17.3053 263.607 17.3412 263.657 17.377C263.851 17.4988 264.116 17.5561 264.467 17.5132C266.402 17.2695 268.509 13.9517 271.999 14.5537C270.565 11.2932 273.245 8.41969 273.002 6.47058C272.973 6.22694 272.901 5.97614 272.737 5.78266C272.672 5.70384 272.615 5.66084 272.536 5.60352C272.615 5.65368 272.658 5.67517 272.729 5.74683C272.93 5.93314 273.102 6.20545 273.31 6.57807C275.374 10.3186 275.309 15.2989 276.9 18.4089C274.786 17.9144 268.459 18.8173 264.639 17.7998C264.231 17.6851 263.923 17.5848 263.693 17.4343C263.622 17.377 263.579 17.334 263.514 17.2623Z" fill="white"/>
<path fill-rule="evenodd" clip-rule="evenodd" d="M263.22 16.6537C262.64 15.0127 262.367 8.92892 262.167 6.84366C263.729 6.60718 270.966 5.26 272.056 5.49648C272.536 5.5968 272.686 5.83327 272.744 6.29189C272.837 7.00847 272.521 7.86837 272.163 8.83576C271.576 10.4266 270.895 12.2754 271.683 14.3105C269.533 14.0382 267.921 15.156 266.538 16.1163C265.7 16.7039 264.94 17.227 264.231 17.3058C263.722 17.3774 263.399 17.1481 263.22 16.6537Z" fill="white"/>
<path fill-rule="evenodd" clip-rule="evenodd" d="M263.514 17.2623C263.564 17.3053 263.607 17.3412 263.657 17.377C263.851 17.4988 264.116 17.5561 264.467 17.5132C266.402 17.2695 268.509 13.9517 271.999 14.5537C270.565 11.2932 273.245 8.41969 273.002 6.47058C272.973 6.22694 272.901 5.97614 272.737 5.78266C272.672 5.70384 272.615 5.66084 272.536 5.60352C272.615 5.65368 272.658 5.67517 272.729 5.74683C272.93 5.93314 273.102 6.20545 273.31 6.57807C275.374 10.3186 275.309 15.2989 276.9 18.4089C274.786 17.9144 268.459 18.8173 264.639 17.7998C264.231 17.6851 263.923 17.5848 263.693 17.4343C263.622 17.377 263.579 17.334 263.514 17.2623Z" fill="white"/>
<g clip-path="url(#clip0_317_385)">
<path d="M403.473 37.8335L376.723 25.9255L345.478 39.8067L346.061 36.8211L376.723 23.1973L402.89 34.8136L403.473 37.8335Z" fill="white"/>
<path d="M404.331 42.2949L376.723 30.0095L344.62 44.2853L345.203 41.2826L376.723 27.2812L403.748 39.275L404.331 42.2949Z" fill="white"/>
<path d="M405.189 46.7564L376.723 34.0934L343.762 48.7468L344.345 45.7441L376.723 31.3652L404.623 43.7537L405.189 46.7564Z" fill="white"/>
<path d="M408.673 64.8755L376.724 50.6511L344.774 64.8755L347.966 48.2317L355.79 44.7314L354.881 49.4671L376.741 39.7383L406.391 52.9332L408.673 64.8755Z" fill="white"/>
<path d="M401.758 28.9119L376.758 17.7589L359.531 25.4116L358.656 29.8557L350.814 33.356L353.954 16.9868L376.758 6.86328L399.459 16.9525L401.758 28.9119Z" fill="white"/>
<path d="M493.659 24.6919C494.362 23.6109 494.705 22.3068 494.688 20.814C494.688 20.6768 494.688 20.5395 494.671 20.4022C494.671 20.265 494.654 20.1277 494.654 19.9733C494.602 19.2355 494.431 18.5148 494.156 17.8285C493.882 17.1421 493.487 16.5244 492.938 16.0097C492.337 15.4091 491.651 14.9973 490.862 14.7914C490.072 14.5683 489.266 14.4482 488.459 14.3968C488.236 14.3796 488.031 14.3624 487.825 14.3624C487.619 14.3624 487.396 14.3453 487.19 14.3281H476.071V35.7934H480.584V27.8662V27.3686V23.5766V23.1133V18.1545H486.109V18.1888C487.121 18.1888 488.048 18.3089 488.871 18.5663C489.695 18.8237 490.107 19.5958 490.107 20.8655C490.124 22.1009 489.746 22.8559 488.957 23.1476C488.168 23.4393 487.293 23.5766 486.332 23.5766C486.298 23.5766 486.246 23.5766 486.212 23.5766H486.109H483.775L485.903 27.3343L490.621 35.7591H495.7L490.347 26.8195C491.84 26.5107 492.955 25.79 493.659 24.6919Z" fill="white"/>
<path d="M551.294 29.754L542.509 14.3457H536.795V35.7938H541.428L541.222 19.5619L550.453 35.7938H555.686V14.3457H551.088L551.294 29.754Z" fill="white"/>
<path d="M577.203 16.7475C575.59 15.1517 573.154 14.3453 569.876 14.3281H560.045V35.7934H569.997C571.232 35.7934 572.416 35.6733 573.531 35.4674C574.664 35.2443 575.71 34.7467 576.688 33.9403C577.89 32.9623 578.713 31.7783 579.194 30.3713C579.674 28.9643 579.931 27.523 579.983 26.0474C580 25.7385 580 25.4297 580 25.1208C579.983 24.812 579.966 24.5203 579.949 24.2286C579.725 20.8484 578.816 18.3432 577.203 16.7475ZM575.058 25.1037C575.058 25.3954 575.058 25.7042 575.058 25.9959C575.058 26.2876 575.041 26.5964 575.024 26.8881C574.973 27.6088 574.835 28.3123 574.647 29.0158C574.458 29.7193 574.132 30.337 573.651 30.9032C573.171 31.4351 572.622 31.7783 571.987 31.8984C571.352 32.0357 570.717 32.0872 570.065 32.0872C570.031 32.0872 569.979 32.0872 569.928 32.0872C569.876 32.0872 569.825 32.07 569.791 32.0529H564.557V18.0687H569.791V18.103C569.825 18.103 569.876 18.103 569.928 18.103C569.979 18.103 570.014 18.103 570.065 18.103C570.717 18.103 571.369 18.1716 571.987 18.3089C572.622 18.4462 573.171 18.7893 573.651 19.3212C574.132 19.836 574.458 20.4366 574.647 21.1057C574.835 21.7749 574.955 22.4784 574.99 23.1648C575.024 23.4908 575.058 23.7996 575.058 24.1428C575.058 24.486 575.058 24.7948 575.058 25.1037Z" fill="white"/>
<path d="M521.369 14.3457L513.888 32.0876L512.842 34.5927L512.327 35.7938H512.842H517.08L519.002 30.6806H528.319L530.292 35.7938H535.302L526.157 14.3457H521.369ZM520.443 26.8714L523.583 18.6182L526.843 26.8714H520.443Z" fill="white"/>
<path d="M502.598 25.0698V14.3457H498.085H497.965V35.811H502.598V35.7938H506.682C506.836 35.7938 506.974 35.811 507.111 35.811H510.234L510.251 35.7595L510.474 35.2276L510.851 34.3354L511.726 32.2592L511.864 31.9503H502.684L502.598 25.0698Z" fill="white"/>
<path d="M419.431 26.5625H427.375H427.976V24.881V23.3539V23.3368V22.6847H419.431V18.1892H430.704V14.3457H429.726H415.793H415.158V15.032V18.1892V22.6847V26.5625V31.9503V35.1933V35.7938H415.793H430.103H430.738V35.1933V32.671V31.9503H419.431V26.5625Z" fill="white"/>
<path d="M444.105 30.3203L437.653 14.3457H432.574L441.891 35.7938H446.558L455.532 14.3457H450.711L444.105 30.3203Z" fill="white"/>
<path d="M461.624 26.5625H469.568H470.169V24.7952L470.186 23.3539L470.169 23.3368V22.6847H461.624V18.1892H472.897V14.3457H471.919H458.003H457.368V15.032V18.1892V22.6847V26.5625V31.9332V35.1933V35.7938H458.003H472.296H472.931V35.1933V32.6538V31.9332H461.624V26.5625Z" fill="white"/>
<path d="M435.011 55.5072C435.011 58.3041 434.084 60.6205 432.231 62.4736C430.378 64.3267 428.044 65.2532 425.248 65.2532C422.537 65.2532 420.254 64.3438 418.367 62.5079C416.48 60.6548 415.536 58.407 415.536 55.7303C415.536 53.0364 416.497 50.8058 418.419 49.0042C420.306 47.254 422.605 46.3789 425.316 46.3789C427.341 46.3789 429.228 46.9623 430.944 48.1462C432.746 49.3645 433.913 50.9087 434.462 52.8133H429.228C428.336 51.2519 426.998 50.4626 425.196 50.4626C423.738 50.4626 422.519 50.9774 421.576 52.024C420.666 53.0364 420.203 54.2718 420.203 55.7474C420.203 57.2745 420.649 58.5614 421.541 59.5909C422.485 60.6719 423.703 61.2038 425.23 61.2038C426.277 61.2038 427.187 60.9636 427.959 60.5003C428.782 59.9856 429.331 59.2478 429.606 58.2869H424.149V54.5807H434.994C434.994 54.7179 435.011 54.8895 435.011 55.0611V55.5072Z" fill="white"/>
<path d="M446.799 64.8759L442.578 59.0077H442.526V64.8759H438.048V46.7051H443.83C444.448 46.7051 444.928 46.7222 445.306 46.7394C445.855 46.7566 446.335 46.808 446.782 46.8938C447.88 47.0826 448.772 47.4429 449.475 48.0091C450.985 49.2102 451.74 50.8574 451.74 52.9679C451.74 54.4092 451.346 55.6618 450.539 56.6913C449.716 57.7895 448.6 58.4586 447.176 58.6817L452.135 64.8759H446.799ZM446.335 51.355C445.821 50.9775 445.1 50.7888 444.225 50.7888H442.526V55.8506H444.173C446.215 55.8506 447.245 54.9755 447.245 53.2425C447.245 52.4017 446.936 51.7668 446.335 51.355Z" fill="white"/>
<path d="M470.477 62.525C468.607 64.3267 466.325 65.2189 463.614 65.2189C460.989 65.2189 458.741 64.3439 456.871 62.5765C454.949 60.792 454.005 58.5958 454.005 56.022C454.005 54.6493 454.245 53.3453 454.709 52.1442C454.966 51.4921 455.361 50.823 455.91 50.1023C457.814 47.6143 460.388 46.3789 463.648 46.3789C466.342 46.3789 468.607 47.2883 470.477 49.0899C472.365 50.9087 473.308 53.1394 473.308 55.7989C473.291 58.4585 472.348 60.7062 470.477 62.525ZM467.269 52.0755C466.308 50.9945 465.107 50.4455 463.665 50.4455C462.207 50.4455 460.989 50.9774 460.045 52.024C459.136 53.0364 458.672 54.2718 458.672 55.7474C458.672 57.2402 459.136 58.51 460.062 59.5395C461.023 60.6205 462.241 61.1524 463.717 61.1524C465.141 61.1524 466.325 60.6033 467.269 59.5223C468.178 58.4928 468.624 57.2574 468.624 55.8161C468.624 54.3576 468.178 53.105 467.269 52.0755Z" fill="white"/>
<path d="M490.433 57.6865C490.433 58.9219 490.33 59.9343 490.124 60.6893C489.849 61.6673 489.334 62.5252 488.614 63.263C487.31 64.5671 485.611 65.2363 483.501 65.2363C482.471 65.2363 481.527 65.0818 480.652 64.7901C479.674 64.447 478.868 63.9494 478.233 63.2973C477.461 62.4909 476.946 61.633 476.689 60.7064C476.569 60.2946 476.5 59.8313 476.448 59.2994C476.397 58.8876 476.397 58.3385 476.397 57.6865V46.7051H481.064V57.6865C481.064 58.167 481.081 58.5788 481.133 58.9219C481.201 59.368 481.304 59.7284 481.459 60.0372C481.836 60.775 482.488 61.1525 483.432 61.1525C484.41 61.1525 485.079 60.7922 485.405 60.0544C485.542 59.7627 485.645 59.3852 485.697 58.9562C485.731 58.6302 485.748 58.2184 485.748 57.6865V46.7051H490.415V57.6865H490.433Z" fill="white"/>
<path d="M507.591 55.4388C507.231 56.3482 506.75 57.0688 506.15 57.6179C505.412 58.2527 504.588 58.6817 503.645 58.9048C502.924 59.0935 501.98 59.1793 500.814 59.1793H498.789V64.8759H494.311V46.7051H500.299C500.882 46.7051 501.363 46.7222 501.757 46.7394C502.306 46.7737 502.804 46.8252 503.25 46.911C504.365 47.0997 505.258 47.4772 505.927 48.0434C507.351 49.2445 508.072 50.8574 508.072 52.8478C508.072 53.7401 507.917 54.598 507.591 55.4388ZM502.632 51.1491C502.169 50.9089 501.466 50.7888 500.505 50.7888H498.772V55.1127H500.659C501.569 55.1127 502.238 54.9755 502.701 54.7009C503.284 54.3578 503.576 53.7744 503.576 52.9336C503.593 52.0757 503.267 51.4751 502.632 51.1491Z" fill="white"/>
</g>
<path d="M321.456 1.7168V72.0666" stroke="white"/>
<defs>
<clipPath id="clip0_317_385">
<rect width="236.238" height="58.3904" fill="white" transform="translate(343.762 6.86328)"/>
</clipPath>
</defs>
</svg>
