<svg width="21" height="21" viewBox="0 0 21 21" fill="none" xmlns="http://www.w3.org/2000/svg">
<path d="M14.6072 1.28906H5.6342C3.15638 1.28906 1.14771 3.29774 1.14771 5.77556V14.7486C1.14771 17.2264 3.15638 19.2351 5.6342 19.2351H14.6072C17.085 19.2351 19.0937 17.2264 19.0937 14.7486V5.77556C19.0937 3.29774 17.085 1.28906 14.6072 1.28906Z" stroke="white" stroke-width="2" stroke-linecap="round" stroke-linejoin="round"/>
<path d="M13.7104 9.69652C13.8211 10.4433 13.6936 11.206 13.3459 11.8761C12.9982 12.5462 12.448 13.0896 11.7737 13.429C11.0993 13.7684 10.3351 13.8865 9.58979 13.7666C8.84444 13.6467 8.15588 13.2948 7.62206 12.7609C7.08823 12.2271 6.73633 11.5386 6.61639 10.7932C6.49645 10.0479 6.61459 9.28366 6.95401 8.60932C7.29342 7.93499 7.83682 7.38484 8.50693 7.03714C9.17703 6.68943 9.93971 6.56188 10.6865 6.67262C11.4482 6.78557 12.1534 7.14052 12.698 7.68504C13.2425 8.22956 13.5974 8.93478 13.7104 9.69652Z" stroke="white" stroke-width="2" stroke-linecap="round" stroke-linejoin="round"/>
<path d="M15.0557 5.32715H15.065" stroke="white" stroke-width="2" stroke-linecap="round" stroke-linejoin="round"/>
</svg>
