<svg width="45" height="46" viewBox="0 0 45 46" fill="none" xmlns="http://www.w3.org/2000/svg">
<path d="M22.4976 42.7416C33.3806 42.7416 42.203 33.9192 42.203 23.0362C42.203 12.1532 33.3806 3.33081 22.4976 3.33081C11.6146 3.33081 2.79224 12.1532 2.79224 23.0362C2.79224 33.9192 11.6146 42.7416 22.4976 42.7416Z" stroke="url(#paint0_linear_487_625)" stroke-width="0.8" stroke-miterlimit="10"/>
<path d="M14.3657 2.14579C16.8857 1.16506 19.6326 0.624756 22.4976 0.624756C34.8748 0.624756 44.9091 10.6591 44.9091 23.0362C44.9091 35.4134 34.8748 45.4477 22.4976 45.4477C19.8642 45.4477 17.3352 44.9936 14.9878 44.1582" stroke="url(#paint1_linear_487_625)" stroke-width="0.3836" stroke-miterlimit="10" stroke-linecap="round" stroke-linejoin="round"/>
<path d="M13.1172 43.3999C5.4257 39.8493 0.0861816 32.067 0.0861816 23.0407C0.0861816 14.4184 4.95804 6.93129 12.0956 3.18091" stroke="url(#paint2_linear_487_625)" stroke-width="0.3836" stroke-miterlimit="10" stroke-linecap="round" stroke-linejoin="round"/>
<path d="M29.0405 13.7965V12.9565H15.9596V13.7965C15.283 16.9158 11.9958 18.5957 9.58936 17.9873C10.1705 18.8909 11.1195 19.4312 12.1274 19.4312H13.7347V20.1213H18.1616V20.8115H15.2013V24.1032H18.1616V24.6345H13.7347V25.2701H14.3931V33.116H17.4715V26.714H27.4559V33.116H30.6069V25.2747H31.2653V24.639H27.2924V24.1032H29.7987V20.8115H27.2924V20.1213H31.2653V19.4312H32.8726C33.8805 19.4312 34.8249 18.8909 35.4107 17.9873C32.9997 18.5912 29.717 16.9158 29.0405 13.7965ZM26.3571 24.6345H19.0924V24.1032H26.3571V24.6345ZM26.3571 20.816H19.0924V20.1258H26.3571V20.816Z" fill="url(#paint3_linear_487_625)"/>
<defs>
<linearGradient id="paint0_linear_487_625" x1="7.00142" y1="10.5737" x2="37.9978" y2="35.5027" gradientUnits="userSpaceOnUse">
<stop offset="0.0458" stop-color="#F5C28D"/>
<stop offset="0.0652" stop-color="#E4AD75"/>
<stop offset="0.1001" stop-color="#C98C4F"/>
<stop offset="0.135" stop-color="#B57332"/>
<stop offset="0.1693" stop-color="#A6611D"/>
<stop offset="0.2029" stop-color="#9D5610"/>
<stop offset="0.2349" stop-color="#9A520C"/>
<stop offset="0.2433" stop-color="#A7621F"/>
<stop offset="0.2672" stop-color="#C98B4E"/>
<stop offset="0.2882" stop-color="#E1A970"/>
<stop offset="0.3055" stop-color="#F0BB85"/>
<stop offset="0.3169" stop-color="#F5C28D"/>
<stop offset="0.3191" stop-color="#F6C48F"/>
<stop offset="0.3432" stop-color="#FBD6A4"/>
<stop offset="0.3669" stop-color="#FEE1B1"/>
<stop offset="0.3894" stop-color="#FFE5B5"/>
<stop offset="0.4138" stop-color="#FEE1B0"/>
<stop offset="0.4409" stop-color="#FAD5A3"/>
<stop offset="0.4691" stop-color="#F3C28D"/>
<stop offset="0.4833" stop-color="#EFB67F"/>
<stop offset="0.6094" stop-color="#C58446"/>
<stop offset="0.7461" stop-color="#9A520C"/>
<stop offset="0.7597" stop-color="#AA6522"/>
<stop offset="0.7946" stop-color="#CF9154"/>
<stop offset="0.821" stop-color="#E6AC73"/>
<stop offset="0.8357" stop-color="#EFB67F"/>
<stop offset="1" stop-color="#EFB67F"/>
</linearGradient>
<linearGradient id="paint1_linear_487_625" x1="14.2784" y1="23.0382" x2="44.9993" y2="23.0382" gradientUnits="userSpaceOnUse">
<stop stop-color="#B66B29"/>
<stop offset="0.0674" stop-color="#BF7731"/>
<stop offset="0.19" stop-color="#D89845"/>
<stop offset="0.3494" stop-color="#FFCB64"/>
<stop offset="0.4031" stop-color="#FFCD69"/>
<stop offset="0.4638" stop-color="#FFD176"/>
<stop offset="0.5277" stop-color="#FFD88D"/>
<stop offset="0.5936" stop-color="#FFE3AC"/>
<stop offset="0.6235" stop-color="#FFE8BD"/>
<stop offset="0.6792" stop-color="#FFDC98"/>
<stop offset="0.7612" stop-color="#FFCB64"/>
<stop offset="0.7905" stop-color="#F0B758"/>
<stop offset="0.8489" stop-color="#D79644"/>
<stop offset="0.9047" stop-color="#C57E35"/>
<stop offset="0.9564" stop-color="#BA702C"/>
<stop offset="1" stop-color="#B66B29"/>
</linearGradient>
<linearGradient id="paint2_linear_487_625" x1="-8.61356e-05" y1="23.2892" x2="13.2028" y2="23.2892" gradientUnits="userSpaceOnUse">
<stop stop-color="#B66B29"/>
<stop offset="0.0674" stop-color="#BF7731"/>
<stop offset="0.19" stop-color="#D89845"/>
<stop offset="0.3494" stop-color="#FFCB64"/>
<stop offset="0.4031" stop-color="#FFCD69"/>
<stop offset="0.4638" stop-color="#FFD176"/>
<stop offset="0.5277" stop-color="#FFD88D"/>
<stop offset="0.5936" stop-color="#FFE3AC"/>
<stop offset="0.6235" stop-color="#FFE8BD"/>
<stop offset="0.6792" stop-color="#FFDC98"/>
<stop offset="0.7612" stop-color="#FFCB64"/>
<stop offset="0.7905" stop-color="#F0B758"/>
<stop offset="0.8489" stop-color="#D79644"/>
<stop offset="0.9047" stop-color="#C57E35"/>
<stop offset="0.9564" stop-color="#BA702C"/>
<stop offset="1" stop-color="#B66B29"/>
</linearGradient>
<linearGradient id="paint3_linear_487_625" x1="-3.8656" y1="2.49167" x2="60.8776" y2="54.3954" gradientUnits="userSpaceOnUse">
<stop offset="0.0458" stop-color="#F5C28D"/>
<stop offset="0.0874" stop-color="#DEAA71"/>
<stop offset="0.1296" stop-color="#CE985C"/>
<stop offset="0.1711" stop-color="#C38D4F"/>
<stop offset="0.2106" stop-color="#C0894B"/>
<stop offset="0.2651" stop-color="#DAAE76"/>
<stop offset="0.3177" stop-color="#EECC98"/>
<stop offset="0.361" stop-color="#FADEAD"/>
<stop offset="0.3894" stop-color="#FFE5B5"/>
<stop offset="0.4533" stop-color="#FEE1B0"/>
<stop offset="0.5242" stop-color="#FAD5A3"/>
<stop offset="0.5981" stop-color="#F3C28D"/>
<stop offset="0.6353" stop-color="#EFB67F"/>
<stop offset="0.6885" stop-color="#C58446"/>
<stop offset="0.7461" stop-color="#9A520C"/>
<stop offset="0.7597" stop-color="#AA6522"/>
<stop offset="0.7946" stop-color="#CF9154"/>
<stop offset="0.821" stop-color="#E6AC73"/>
<stop offset="0.8357" stop-color="#EFB67F"/>
<stop offset="1" stop-color="#EFB67F"/>
</linearGradient>
</defs>
</svg>
