<svg width="17" height="16" viewBox="0 0 17 16" fill="none" xmlns="http://www.w3.org/2000/svg">
<path d="M1.16272 3.09468L3.30325 1.12752C3.45424 0.988016 3.63372 0.877327 3.83135 0.801814C4.02899 0.726301 4.2409 0.687453 4.45491 0.6875C4.89106 0.6875 5.30107 0.844651 5.60859 1.12752L7.91192 3.24628C8.06358 3.38518 8.18391 3.55027 8.266 3.73207C8.34809 3.91387 8.39032 4.1088 8.39027 4.30566C8.39027 4.70686 8.21943 5.08402 7.91192 5.36689L6.22763 6.91621C6.62189 7.71558 7.17002 8.44277 7.84559 9.06271C8.51947 9.68565 9.30994 10.1917 10.1791 10.5566L11.8634 9.00724C12.0144 8.86774 12.1938 8.75705 12.3915 8.68154C12.5891 8.60602 12.801 8.56717 13.015 8.56722C13.4512 8.56722 13.8612 8.72437 14.1687 9.00724L16.474 11.1242C16.6259 11.2633 16.7463 11.4287 16.8284 11.6108C16.9105 11.793 16.9526 11.9882 16.9524 12.1854C16.9524 12.5866 16.7816 12.9637 16.474 13.2466L14.3375 15.2119C13.8471 15.6649 13.1698 15.9219 12.4744 15.9219C12.3276 15.9219 12.1869 15.9108 12.0483 15.8886C9.33894 15.4782 6.65172 14.1525 4.48305 12.1595C2.31639 10.1683 0.877315 7.69827 0.42509 5.19865C0.288417 4.43508 0.563771 3.64933 1.16272 3.09468Z" fill="#19FFFF"/>
</svg>
