<svg width="34" height="21" viewBox="0 0 34 21" fill="none" xmlns="http://www.w3.org/2000/svg">
<path d="M31.7982 11.424L33.7064 16.3059C33.9867 17.023 33.6581 17.8509 32.9622 18.1865C32.3712 18.4652 31.8991 18.6816 31.5127 18.8326C19.3097 23.5865 5.5707 17.5741 0.805613 5.38329C0.654682 4.99716 0.493616 4.5037 0.297834 3.88074C0.072728 3.14206 0.445046 2.34473 1.17635 2.05888L6.06091 0.14963C6.41967 0.00940238 6.81185 0.158162 6.99339 0.500536C7.14497 0.806932 7.26959 1.04437 7.37265 1.22666C8.40866 3.06325 9.71588 4.69846 11.1984 6.09028C11.4304 6.31755 11.477 6.68088 11.2987 6.95724L9.14836 10.2459C12.6108 13.7731 17.345 15.8334 22.2733 15.9896L23.2393 12.1941C23.3217 11.8757 23.6205 11.6635 23.945 11.6798C25.974 11.8247 28.0578 11.662 30.1165 11.1911C30.3205 11.1432 30.5796 11.0737 30.9077 10.9772C31.2827 10.8784 31.658 11.0655 31.7982 11.424Z" fill="#F4DF76"/>
</svg>
