<svg width="62" height="35" viewBox="0 0 62 35" fill="none" xmlns="http://www.w3.org/2000/svg">
<path d="M21.2981 17.8533L24.6872 12.1934L28.0072 17.8533H21.2981Z" fill="#A9DAF6"/>
<path d="M31.4622 0.875L41.4205 17.8532H35.0218L28.2612 6.22191L31.4622 0.875Z" fill="#2C497D"/>
<path d="M28.0363 6.62598L34.4045 17.8537H28.6553L24.98 11.7139L28.0363 6.62598Z" fill="#3595D2"/>
<path d="M5.69349 22.3357C5.69349 22.3357 11.8527 21.8289 11.8527 28.6011C11.8527 35.3733 6.05201 34.8664 6.05201 34.8664H0.508545V22.3357H5.69349ZM4.05038 24.8718V32.3797H5.4877C5.4877 32.3797 8.36232 32.4305 8.36232 28.6249C8.36232 24.8193 5.89767 24.8702 5.89767 24.8702H4.05038V24.8718Z" fill="#2C497D"/>
<path d="M14.2146 22.3262V34.8743H24.0186V32.3812H17.705V29.7419H23.0957V27.3076H17.705V24.8717H23.7629V22.3262H14.2146Z" fill="#2C497D"/>
<path d="M31.1535 32.3812L31.102 22.3262H27.6631V34.8743H37.2629V32.3812H31.1535Z" fill="#2C497D"/>
<path d="M44.4495 25.2912L44.398 34.8743H40.8562L40.8048 25.2912H37.0571V22.3262H48.1971V25.2785L44.4495 25.2912Z" fill="#2C497D"/>
<path d="M49.0686 34.8743L53.3805 22.3262H57.1282L61.4916 34.8743H58.0526L57.5912 33.0899H52.8693L52.4593 34.8743H49.0686ZM55.2809 25.2276L53.6892 30.7064H56.9738L55.2809 25.2276Z" fill="#2C497D"/>
</svg>
