<svg width="78" height="35" viewBox="0 0 78 35" fill="none" xmlns="http://www.w3.org/2000/svg">
<path d="M0.10791 0.875977L4.68346 19.9537H9.92595L13.3796 7.23521L16.8384 19.9537H22.3032L26.8787 0.875977H21.75L19.5165 12.8138L16.0577 0.875977H10.7066L7.47014 12.8138L5.12809 0.875977H0.10791Z" fill="#6DBE4A"/>
<path d="M42.1617 0.876365H33.7965C33.7965 0.876365 26.8789 0.540308 26.8789 10.4152C26.8789 20.2901 33.3467 19.9541 33.3467 19.9541H42.1566V16.0506H35.6888C35.6888 16.0506 32.6281 15.7663 32.23 12.5453H41.7998V8.47642H32.2817C32.2817 8.47642 32.6798 4.90905 35.7508 4.90905C38.8219 4.90905 42.1566 4.90905 42.1566 4.90905V0.876365H42.1617Z" fill="#6DBE4A"/>
<path d="M60.4431 0.876051H47.7504C47.7504 0.876051 42.9888 0.78816 42.9888 6.64072C42.9888 12.4933 47.9934 12.4416 47.9934 12.4416H55.0351C55.0351 12.4416 56.5706 12.5915 56.5706 14.0753C56.5706 15.5592 55.9761 16.0607 54.9834 16.0607C53.9908 16.0607 43.8263 16.0607 43.8263 16.0607V20.2226H56.7671C56.7671 20.2226 61.4771 19.8762 61.4771 14.3752C61.4771 8.87421 57.4599 8.27965 56.1725 8.27965C54.8852 8.27965 49.1826 8.27965 49.1826 8.27965C49.1826 8.27965 47.797 7.97978 47.797 6.59419C47.797 5.2086 49.1826 4.96044 49.5341 4.96044C49.8857 4.96044 60.5413 4.96044 60.5413 4.96044L60.4431 0.876051Z" fill="#6DBE4A"/>
<path d="M61.2339 0.875977V4.95519H67.2829V20.2225H71.9929V4.95519H77.892V0.875977H61.2339Z" fill="#6DBE4A"/>
<path d="M7.11341 24.9849V27.1667H3.38059C3.38059 27.1667 2.12425 27.5286 2.12425 28.8521C2.12425 30.1757 1.98983 32.6521 3.14793 32.6521C4.30604 32.6521 5.23149 32.6521 5.23149 32.6521V30.9667H3.54603V28.9503H7.11341V34.8649H2.98249C2.98249 34.8649 0.10791 35.1958 0.10791 29.9223C0.10791 24.6488 2.91528 24.9797 2.91528 24.9797H7.11341V24.9849Z" fill="#6DBE4A"/>
<path d="M70.4733 24.9849V27.1667H66.7405C66.7405 27.1667 65.4841 27.5286 65.4841 28.8521C65.4841 30.1757 65.3497 32.6521 66.5078 32.6521C67.6659 32.6521 68.5914 32.6521 68.5914 32.6521V30.9667H66.9059V28.9503H70.4733V34.8649H66.3424C66.3424 34.8649 63.4678 35.1958 63.4678 29.9223C63.4678 24.6488 66.2751 24.9797 66.2751 24.9797H70.4733V24.9849Z" fill="#6DBE4A"/>
<path d="M12.1803 24.9795C12.9972 24.9795 14.2639 25.5017 14.2639 28.2056C14.2639 30.9096 12.8524 31.1578 12.8524 31.1578L14.4551 34.8699H12.2734L10.8206 31.3956H9.69865V34.8699H7.74952V24.9795C7.74435 24.9795 11.3634 24.9795 12.1803 24.9795ZM9.66246 27.1768V29.3482H11.5702C11.5702 29.3482 12.2268 29.4103 12.2268 28.2625C12.2268 27.1147 11.6219 27.1768 11.6219 27.1768H9.66246Z" fill="#6DBE4A"/>
<path d="M20.7054 28.9395V30.9352H16.8382C16.8382 30.9352 16.864 32.1605 18.0428 32.7085H20.783V34.8748H17.562C17.562 34.8748 14.6978 34.6576 14.6978 30.8163V28.9447C14.6978 28.9447 14.9356 24.9844 17.4844 24.9844C20.0333 24.9844 20.783 24.9844 20.783 24.9844V27.1817H18.079C18.079 27.1817 16.8537 27.466 16.8537 28.9188L20.7054 28.9395Z" fill="#6DBE4A"/>
<path d="M27.3802 28.9395V30.9352H23.513C23.513 30.9352 23.5388 32.1605 24.7176 32.7085H27.4578V34.8748H24.2368C24.2368 34.8748 21.3726 34.6576 21.3726 30.8163V28.9447C21.3726 28.9447 21.6104 24.9844 24.1592 24.9844C26.7081 24.9844 27.4578 24.9844 27.4578 24.9844V27.1817H24.7538C24.7538 27.1817 23.5285 27.466 23.5285 28.9188L27.3802 28.9395Z" fill="#6DBE4A"/>
<path d="M52.3934 28.9395V30.9352H48.5262C48.5262 30.9352 48.552 32.1605 49.7308 32.7085H52.471V34.8748H49.25C49.25 34.8748 46.3857 34.6576 46.3857 30.8163V28.9447C46.3857 28.9447 46.6236 24.9844 49.1724 24.9844C51.7213 24.9844 52.471 24.9844 52.471 24.9844V27.1817H49.767C49.767 27.1817 48.5417 27.466 48.5417 28.9188L52.3934 28.9395Z" fill="#6DBE4A"/>
<path d="M28.042 24.9795V34.8699H30.0015V29.1725L32.4056 34.8699H34.7631V24.9795H32.8037V30.7855L30.3479 24.9795H28.042Z" fill="#6DBE4A"/>
<path d="M71.1763 24.9795V34.8699H73.1357V29.1725L75.5398 34.8699H77.8922V24.9795H75.9328V30.7855L73.4821 24.9795H71.1763Z" fill="#6DBE4A"/>
<path d="M59.8694 24.9795V27.1923H55.4593C55.4593 27.1923 54.8906 27.2181 54.8906 28.0092C54.8906 28.8002 55.4852 28.8261 55.4852 28.8261H58.3339C58.3339 28.8261 60.2158 29.2707 60.2158 31.0078V32.6674C60.2158 32.6674 59.8436 34.8699 58.2822 34.8699C56.7208 34.8699 53.2517 34.8699 53.2517 34.8699V32.6674H57.8634C57.8634 32.6674 58.3339 32.6933 58.3339 31.773C58.3339 30.8527 57.5894 30.9561 57.5894 30.9561H54.4666C54.4666 30.9561 52.9053 30.3099 52.9053 28.7744V27.1923C52.9053 27.1923 53.1017 24.9795 55.0147 24.9795C56.9276 24.9795 59.8694 24.9795 59.8694 24.9795Z" fill="#6DBE4A"/>
<path d="M62.8371 24.9795H60.9189V34.8699H62.8371V24.9795Z" fill="#6DBE4A"/>
<path d="M43.1126 24.9795C45.7907 24.9795 45.9407 28.8519 45.9407 28.8519V30.9355C45.9407 34.7045 42.9885 34.8751 42.9885 34.8751H38.9507V24.9795C38.9507 24.9795 40.4397 24.9795 43.1126 24.9795ZM40.8585 27.1664V32.6881H42.4457C42.4457 32.6881 43.8675 32.5537 43.8675 30.739V29.1518C43.8675 29.1518 43.8675 27.1664 42.5801 27.1664C41.2876 27.1664 40.8585 27.1664 40.8585 27.1664Z" fill="#6DBE4A"/>
</svg>
