<svg width="140" height="35" viewBox="0 0 140 35" fill="none" xmlns="http://www.w3.org/2000/svg">
<g clip-path="url(#clip0_593_791)">
<path d="M88.6682 11.1281C89.0815 10.4891 89.2855 9.73592 89.2719 8.86036C89.2719 8.77878 89.2692 8.69993 89.261 8.61836C89.2583 8.53678 89.2528 8.45249 89.2528 8.37092C89.2175 7.94129 89.1223 7.51983 88.9646 7.11196C88.8042 6.70681 88.5703 6.3506 88.2549 6.04606C87.9042 5.69529 87.499 5.45601 87.0368 5.32821C86.5772 5.20041 86.1068 5.12427 85.6282 5.0998C85.5004 5.08893 85.3754 5.08077 85.253 5.08077C85.1306 5.08077 85.0056 5.07533 84.8778 5.06445H78.3682V17.6296H81.0112V7.3023H84.2496V7.32133C84.8451 7.32133 85.3835 7.39747 85.8703 7.54702C86.3515 7.70201 86.5935 8.15067 86.5935 8.89571C86.6071 9.619 86.3814 10.0649 85.9219 10.2335C85.4597 10.4048 84.9485 10.4864 84.3883 10.4864H84.2578H82.8846L84.1246 12.6916L86.8872 17.6296H89.8647L86.7322 12.3979C87.6078 12.1859 88.2522 11.7644 88.6655 11.1281H88.6682Z" fill="#145088"/>
<path d="M122.413 14.092L117.268 5.06445H113.926V17.6296H116.637L116.515 8.12347L121.923 17.6296H124.985V5.06445H122.29L122.413 14.092Z" fill="#145088"/>
<path d="M137.583 6.4784C136.636 5.54846 135.209 5.07533 133.297 5.06445H127.541V17.6296H133.371C134.094 17.6296 134.785 17.5616 135.443 17.4365C136.103 17.3087 136.718 17.0123 137.292 16.5446C137.99 15.9736 138.483 15.2748 138.76 14.4536C139.04 13.6297 139.192 12.7868 139.219 11.9248C139.228 11.7399 139.233 11.5577 139.225 11.3864C139.219 11.2097 139.209 11.0357 139.198 10.8589C139.067 8.87667 138.531 7.4165 137.585 6.48384L137.583 6.4784ZM136.324 11.362V11.8868C136.324 12.0608 136.318 12.2375 136.305 12.4115C136.269 12.833 136.198 13.2463 136.087 13.6542C135.976 14.0621 135.78 14.4291 135.502 14.7554C135.222 15.0709 134.899 15.2666 134.532 15.3428C134.165 15.4189 133.789 15.457 133.403 15.457H133.324C133.294 15.457 133.267 15.4515 133.248 15.4379H130.186V7.25063H133.248V7.26967H133.406C133.792 7.26967 134.167 7.31045 134.534 7.39203C134.901 7.4736 135.225 7.66938 135.505 7.98752C135.785 8.28934 135.978 8.63739 136.09 9.0371C136.201 9.43409 136.266 9.83653 136.291 10.2444C136.315 10.432 136.326 10.6196 136.326 10.8127V11.3647L136.324 11.362Z" fill="#145088"/>
<path d="M104.899 5.06522L100.51 15.4605L99.8928 16.9233L99.5964 17.6276H102.378L103.498 14.6338H108.958L110.114 17.6276H113.053L107.699 5.0625H104.901L104.899 5.06522ZM104.355 12.3987L106.19 7.56682L108.099 12.3987H104.355Z" fill="#145088"/>
<path d="M93.908 11.3456V5.06445H91.1997V17.6296H93.908V17.6241H96.2954C96.3824 17.6241 96.4639 17.6296 96.551 17.6296H98.3809L98.3918 17.5996L98.5223 17.2869L98.7399 16.7676L99.2565 15.5494L99.3326 15.3672H93.9542L93.908 11.3456Z" fill="#145088"/>
<path d="M45.2084 12.2185H50.217V9.95073H45.2084V7.32133H51.8104V5.06445H42.7095V17.6296H51.8294V15.37H45.2056V12.2185H45.2084Z" fill="#145088"/>
<path d="M59.6579 14.4264L55.8783 5.06445H52.9036L58.3609 17.6296H61.0936L66.3442 5.06445H63.5272L59.6579 14.4264Z" fill="#145088"/>
<path d="M69.9117 12.2185H74.9176V10.3368C74.9176 10.3368 74.9176 10.3314 74.9176 10.3287V9.95073H69.9117V7.32133H76.5138V5.06445H67.4128V17.6296H76.5301V15.37H69.909V12.2185H69.9117Z" fill="#145088"/>
<path d="M2.10472 18.2693L1.77026 20.0096L19.9069 11.9446L35.4412 18.8567L35.1014 17.1083L19.9069 10.3594L2.10472 18.2693Z" fill="url(#paint0_linear_593_791)"/>
<path d="M1.60716 20.8607L1.27271 22.6063L19.9069 14.3184L35.9362 21.448L35.6017 19.7023L19.9069 12.7305L1.60716 20.8607Z" fill="url(#paint1_linear_593_791)"/>
<path d="M1.1096 23.4574L0.775146 25.195L19.9069 16.6868L36.4365 24.0421L36.1021 22.2937L19.9069 15.1016L1.1096 23.4574Z" fill="url(#paint2_linear_593_791)"/>
<path d="M1.35693 34.5561L3.2141 24.8923L7.75776 22.8693L7.22753 25.6156L19.915 19.9707L37.1325 27.6223L38.4595 34.5561L19.9096 26.3036L1.35693 34.5561Z" fill="url(#paint3_linear_593_791)"/>
<path d="M6.69469 6.75104L19.926 0.875L33.1056 6.73744L34.4461 13.6794L19.926 7.20513L9.92773 11.6509L9.41926 14.2286L4.86743 16.2571L6.69469 6.75104Z" fill="url(#paint4_linear_593_791)"/>
<path d="M54.3311 29.1681C54.3311 30.8023 53.79 32.1618 52.705 33.2468C51.6174 34.3317 50.2524 34.8755 48.6127 34.8755C46.9731 34.8755 45.687 34.3399 44.5857 33.2685C43.479 32.1863 42.9243 30.8621 42.9243 29.2959C42.9243 27.7297 43.4872 26.4109 44.6129 25.3586C45.7141 24.3335 47.0628 23.8223 48.6535 23.8223C49.8418 23.8223 50.9403 24.1649 51.9545 24.8528C53.0041 25.5652 53.6894 26.4734 54.0102 27.5828H50.943C50.4237 26.6665 49.6379 26.2069 48.5828 26.2069C47.7263 26.2069 47.0193 26.5115 46.4619 27.1206C45.9235 27.7106 45.657 28.4366 45.657 29.2959C45.657 30.1551 45.9181 30.9437 46.4402 31.5419C46.9921 32.1727 47.71 32.4909 48.5964 32.4909C49.2137 32.4909 49.7466 32.3522 50.1926 32.0775C50.6738 31.7784 50.9947 31.3461 51.1524 30.7778H47.9574V28.6079H54.3093C54.3148 28.6922 54.3175 28.7847 54.3229 28.888V29.1681H54.3311Z" fill="#145088"/>
<path d="M61.2268 34.6556L58.7524 31.224H58.7252V34.6556H56.104V24.0156H59.4893C59.8482 24.0156 60.1338 24.0238 60.3513 24.0374C60.6721 24.051 60.9577 24.0809 61.2133 24.1298C61.855 24.2386 62.3798 24.4561 62.7903 24.7824C63.6713 25.484 64.1118 26.452 64.1118 27.6892C64.1118 28.5375 63.878 29.2635 63.413 29.8726C62.929 30.5171 62.2737 30.9059 61.4498 31.0391L64.3538 34.661H61.2296L61.2268 34.6556ZM60.9577 26.732C60.6504 26.5118 60.2398 26.403 59.7204 26.403H58.7252V29.3642H59.6933C60.8897 29.3642 61.4879 28.8557 61.4879 27.8414C61.4879 27.3493 61.3111 26.9795 60.9577 26.732Z" fill="#145088"/>
<path d="M75.0943 33.2802C73.9957 34.3325 72.6579 34.86 71.0808 34.86C69.5037 34.86 68.2284 34.3433 67.1299 33.3101C66.0096 32.2632 65.4468 30.9825 65.4468 29.4707C65.4468 28.6658 65.5855 27.9072 65.8628 27.1975C66.0096 26.8195 66.2408 26.4198 66.5616 26.0038C67.6737 24.549 69.1829 23.8203 71.0917 23.8203C72.6661 23.8203 73.9984 24.3478 75.0915 25.4056C76.1928 26.4687 76.7448 27.7766 76.7448 29.3374C76.7448 30.8982 76.1928 32.2143 75.0915 33.2829L75.0943 33.2802ZM73.2208 27.1594C72.6606 26.5231 71.9564 26.205 71.108 26.205C70.2596 26.205 69.5445 26.515 68.9871 27.1322C68.4487 27.7277 68.1822 28.451 68.1822 29.3075C68.1822 30.164 68.4541 30.9227 68.9952 31.5263C69.5554 32.1572 70.2705 32.4753 71.1352 32.4753C71.9999 32.4753 72.6633 32.1572 73.2208 31.5209C73.7483 30.9172 74.012 30.194 74.012 29.351C74.012 28.5081 73.7483 27.7658 73.2208 27.1621V27.1594Z" fill="#145088"/>
<path d="M86.7756 30.4464C86.7756 31.1724 86.7158 31.7597 86.5907 32.2084C86.4248 32.7848 86.1312 33.2851 85.707 33.7093C84.9483 34.4761 83.9504 34.8595 82.7105 34.8595C82.1068 34.8595 81.5522 34.7725 81.0437 34.6012C80.4699 34.4054 79.9968 34.1118 79.6297 33.7229C79.1783 33.2498 78.8765 32.744 78.7243 32.2056C78.659 31.9609 78.61 31.689 78.5829 31.3845C78.5638 31.1425 78.5557 30.827 78.5557 30.4436V24.0156H81.2911V30.4436C81.2911 30.7237 81.3047 30.9657 81.3346 31.1669C81.3727 31.4253 81.4352 31.6428 81.525 31.8195C81.7425 32.2546 82.1286 32.4721 82.6833 32.4721C83.238 32.4721 83.6432 32.26 83.8417 31.8331C83.9205 31.6591 83.9776 31.4443 84.0102 31.1887C84.0293 31.0011 84.0374 30.7536 84.0374 30.4436V24.0156H86.7729V30.4436L86.7756 30.4464Z" fill="#145088"/>
<path d="M96.8256 29.1249C96.619 29.6578 96.3362 30.0847 95.9772 30.4029C95.5476 30.7727 95.0609 31.0255 94.5143 31.1615C94.0956 31.2703 93.5409 31.3219 92.853 31.3219H91.6647V34.6556H89.0435V24.0156H92.5484C92.8883 24.0156 93.1738 24.0238 93.4022 24.0374C93.7231 24.0564 94.014 24.089 94.2778 24.1353C94.9277 24.2468 95.4497 24.467 95.8467 24.796C96.6842 25.503 97.1057 26.4411 97.1057 27.6103C97.1057 28.1297 97.0105 28.6354 96.8229 29.1276L96.8256 29.1249ZM93.9216 26.6124C93.6469 26.471 93.2336 26.403 92.6789 26.403H91.6674V28.9372H92.7768C93.3043 28.9372 93.7013 28.8584 93.9705 28.698C94.3131 28.4968 94.4872 28.1514 94.4872 27.6593C94.4872 27.1671 94.2995 26.8109 93.9216 26.6124Z" fill="#145088"/>
</g>
<defs>
<linearGradient id="paint0_linear_593_791" x1="36.499" y1="15.1858" x2="0.9654" y2="15.1858" gradientUnits="userSpaceOnUse">
<stop stop-color="#F6B21A"/>
<stop offset="1" stop-color="#EE5B28"/>
</linearGradient>
<linearGradient id="paint1_linear_593_791" x1="36.4882" y1="17.6684" x2="0.97632" y2="17.6684" gradientUnits="userSpaceOnUse">
<stop stop-color="#F6B21A"/>
<stop offset="1" stop-color="#EE5B28"/>
</linearGradient>
<linearGradient id="paint2_linear_593_791" x1="36.48" y1="20.1483" x2="0.987237" y2="20.1483" gradientUnits="userSpaceOnUse">
<stop stop-color="#F6B21A"/>
<stop offset="1" stop-color="#EE5B28"/>
</linearGradient>
<linearGradient id="paint3_linear_593_791" x1="38.3398" y1="27.2634" x2="1.46026" y2="27.2634" gradientUnits="userSpaceOnUse">
<stop stop-color="#209FDA"/>
<stop offset="0.23" stop-color="#1C85BF"/>
<stop offset="0.54" stop-color="#1768A1"/>
<stop offset="0.81" stop-color="#14568E"/>
<stop offset="1" stop-color="#145088"/>
</linearGradient>
<linearGradient id="paint4_linear_593_791" x1="38.3399" y1="8.5647" x2="1.46036" y2="8.5647" gradientUnits="userSpaceOnUse">
<stop stop-color="#209FDA"/>
<stop offset="0.23" stop-color="#1C85BF"/>
<stop offset="0.54" stop-color="#1768A1"/>
<stop offset="0.81" stop-color="#14568E"/>
<stop offset="1" stop-color="#145088"/>
</linearGradient>
<clipPath id="clip0_593_791">
<rect width="138.45" height="34" fill="white" transform="translate(0.775146 0.875)"/>
</clipPath>
</defs>
</svg>
