<svg width="34" height="35" viewBox="0 0 34 35" fill="none" xmlns="http://www.w3.org/2000/svg">
<path d="M0.769531 28.9897C0.806868 28.9184 0.827234 28.8743 0.854388 28.8301C1.72671 27.3197 2.59903 25.8092 3.47136 24.2988C3.60034 24.0782 3.52227 24.1155 3.79042 24.1155C5.2194 24.1155 6.64498 24.1155 8.07396 24.1155C8.12827 24.1155 8.18597 24.1155 8.24028 24.1189C8.26743 24.1189 8.28101 24.1393 8.26743 24.163C8.25046 24.197 8.2301 24.2309 8.20973 24.2649C8.1113 24.4346 8.01626 24.6043 7.91783 24.7706C7.89407 24.8113 7.91104 24.8317 7.95516 24.8351C7.99929 24.8385 8.04341 24.8385 8.08754 24.8385C13.5862 24.8385 19.0815 24.8385 24.5802 24.8385C24.6311 24.8385 24.682 24.8385 24.7296 24.8317C24.7567 24.8283 24.7669 24.8079 24.7533 24.7842C24.7363 24.7502 24.716 24.7163 24.6956 24.6824C23.8301 23.1821 22.9612 21.6818 22.0956 20.1816C20.9076 18.1247 19.723 16.0711 18.535 14.0142C17.2826 11.8419 16.0267 9.67297 14.7742 7.50065C14.5298 7.07637 14.2854 6.65208 14.0377 6.2278C14.0241 6.20404 14.0105 6.18028 13.9969 6.15652C13.98 6.12598 13.9766 6.09203 13.9935 6.06148C14.0139 6.02754 14.0309 5.9936 14.0512 5.95966C14.5163 5.15522 14.9813 4.34739 15.4463 3.54295C15.4734 3.49543 15.4938 3.44112 15.5481 3.40039C20.4698 11.9234 25.388 20.4429 30.3063 28.9625C30.2826 28.9964 30.252 28.993 30.2248 28.9964C30.1638 28.9964 30.1027 28.9964 30.0416 28.9964C20.3781 28.9964 10.7147 28.9964 1.05465 28.9964C0.976581 28.993 0.88833 28.9897 0.769531 28.9897Z" fill="#ED2326"/>
<path d="M17.0245 0.875C17.0652 0.946279 17.106 1.01416 17.1433 1.08205C20.0284 6.08178 22.9169 11.0815 25.8021 16.0779C28.2561 20.3241 30.7067 24.5703 33.1574 28.8165C33.2626 28.9998 33.2728 28.9964 33.0624 28.9964C32.5668 28.9964 32.0712 28.9964 31.5723 28.9964C31.5349 28.9964 31.4942 28.9964 31.4569 28.9964C31.4195 28.9964 31.3924 28.9794 31.3754 28.9489C31.3483 28.9047 31.3245 28.864 31.3007 28.8199C29.865 26.3285 28.4258 23.8405 26.99 21.3491C24.4342 16.923 21.8817 12.5003 19.3258 8.07421C18.2702 6.24471 17.2146 4.4152 16.159 2.5857C16.0741 2.43636 16.0775 2.4703 16.1556 2.33113C16.4169 1.8763 16.6783 1.42487 16.9431 0.970039C16.9566 0.942885 16.9668 0.902154 17.0245 0.875Z" fill="#333790"/>
<path d="M12.3201 21.1353C10.0527 21.1353 7.78198 21.1353 5.51462 21.1353C5.28042 21.1353 5.294 21.1421 5.4094 20.9418C5.96266 19.9812 6.51932 19.0207 7.07258 18.0635C7.09634 18.0261 7.11671 17.9854 7.14047 17.9481C7.15744 17.9175 7.18459 17.9006 7.22193 17.9006C7.25927 17.9006 7.3 17.9006 7.33734 17.9006C10.6535 17.9006 13.9697 17.9006 17.2859 17.9006C17.4963 17.9006 17.4454 17.8768 17.5439 18.0465C18.1107 19.024 18.6741 20.005 19.241 20.9825C19.2546 21.0063 19.2681 21.0301 19.2817 21.0538C19.3157 21.1217 19.3123 21.1319 19.241 21.1353C19.1969 21.1353 19.1527 21.1353 19.1086 21.1353C16.8446 21.1353 14.5807 21.1353 12.3201 21.1353Z" fill="#333790"/>
<path d="M20.6157 23.413C15.0831 23.413 9.54707 23.413 4.01444 23.413C3.99747 23.3791 4.01444 23.3553 4.02802 23.3315C4.28598 22.8835 4.54734 22.4355 4.80191 21.984C4.84264 21.9093 4.89355 21.8788 4.97502 21.889C5.00217 21.8924 5.02932 21.889 5.05987 21.889C9.88989 21.889 14.7165 21.889 19.5465 21.889C19.8147 21.889 19.7366 21.8449 19.8758 22.0825C20.11 22.483 20.3408 22.8835 20.5682 23.284C20.592 23.3247 20.6293 23.3553 20.6157 23.413Z" fill="#333790"/>
<path d="M3.3221 33.3444C3.3221 33.29 3.32549 33.2357 3.32549 33.1814C3.32549 32.3838 3.32549 31.5861 3.32549 30.7919C3.32549 30.6357 3.30513 30.6357 3.47824 30.6357C3.66152 30.6357 3.84481 30.6357 4.0315 30.6357C4.09599 30.6357 4.10617 30.6459 4.10957 30.7172C4.10957 30.7545 4.10957 30.7953 4.10957 30.8326C4.10957 32.0851 4.10957 33.341 4.10957 34.5934C4.10957 34.8209 4.12654 34.7903 3.91609 34.7903C3.72262 34.7903 3.52575 34.7903 3.33228 34.7903C3.28816 34.7903 3.25761 34.7767 3.23385 34.7394C3.21009 34.7021 3.18633 34.6647 3.16257 34.624C2.67719 33.8331 2.18842 33.0389 1.69965 32.248C1.67249 32.2039 1.65213 32.1496 1.60121 32.1156C1.57067 32.1632 1.58424 32.2039 1.58424 32.2378C1.58424 33.0253 1.58424 33.8094 1.58424 34.5968C1.58424 34.8242 1.608 34.7937 1.39077 34.7971C1.21766 34.7971 1.04456 34.7971 0.871449 34.7971C0.830718 34.7971 0.806959 34.7801 0.806959 34.7394C0.806959 34.6953 0.806959 34.6511 0.806959 34.607C0.806959 33.3477 0.806959 32.0885 0.806959 30.8292C0.806959 30.6188 0.783199 30.6425 0.993642 30.6425C1.17354 30.6425 1.35004 30.6459 1.52993 30.6425C1.59103 30.6425 1.63176 30.6629 1.6657 30.7172C1.82863 30.9887 1.99834 31.2603 2.16466 31.5284C2.52106 32.1055 2.87745 32.6859 3.23385 33.2629C3.25421 33.2968 3.27797 33.3274 3.29834 33.3579C3.30173 33.3511 3.31192 33.3478 3.3221 33.3444Z" fill="#333790"/>
<path d="M14.1495 31.7902C13.9662 31.8241 13.8033 31.8547 13.637 31.8852C13.5487 31.9022 13.4605 31.9158 13.3722 31.9294C13.3349 31.9361 13.3078 31.926 13.2942 31.8852C13.2908 31.8683 13.284 31.8547 13.2772 31.8377C13.1448 31.522 12.9072 31.3422 12.5712 31.2946C12.3709 31.2675 12.1707 31.2777 11.9772 31.3388C11.6649 31.4372 11.4477 31.6375 11.3187 31.9361C11.2474 32.1025 11.2169 32.2756 11.1999 32.4555C11.1728 32.7643 11.1931 33.0698 11.2882 33.3651C11.4138 33.7521 11.6717 34.0134 12.0722 34.1153C12.3166 34.1764 12.561 34.1594 12.7986 34.0847C12.9751 34.0304 13.138 33.9422 13.2908 33.8437C13.3247 33.8234 13.3553 33.7996 13.3553 33.7521C13.3553 33.6061 13.3553 33.4636 13.3553 33.3176C13.3553 33.2871 13.3383 33.2667 13.3044 33.2633C13.2602 33.2599 13.2161 33.2599 13.172 33.2599C12.948 33.2599 12.7273 33.2599 12.5033 33.2599C12.4117 33.2599 12.4049 33.2531 12.4015 33.1683C12.4015 32.9884 12.4015 32.8119 12.4015 32.632C12.4015 32.5777 12.4185 32.5641 12.4728 32.5641C12.4897 32.5641 12.5067 32.5641 12.5237 32.5641C13.043 32.5641 13.5623 32.5641 14.0783 32.5641C14.1054 32.5641 14.1326 32.5641 14.1631 32.5675C14.1869 32.5709 14.2038 32.5845 14.2072 32.6116C14.2106 32.6388 14.2106 32.6659 14.2106 32.6965C14.2106 33.1717 14.2072 33.6435 14.214 34.1187C14.214 34.2069 14.1835 34.2612 14.1156 34.3155C13.8474 34.5158 13.5521 34.6549 13.2365 34.75C12.7749 34.8891 12.3065 34.9163 11.8346 34.8043C11.1931 34.6515 10.7383 34.2714 10.5007 33.6536C10.2529 33.0019 10.2495 32.3435 10.5279 31.6985C10.7655 31.1487 11.1796 30.7889 11.76 30.6361C12.0145 30.5683 12.2759 30.5513 12.5407 30.5649C12.7307 30.5751 12.9174 30.5954 13.1007 30.6497C13.6166 30.8025 13.9561 31.1317 14.1156 31.6442C14.1258 31.685 14.1326 31.7291 14.1495 31.7902Z" fill="#333790"/>
<path d="M29.1694 32.6859C29.1796 32.5263 29.183 32.3464 29.2136 32.1699C29.2916 31.7083 29.5021 31.318 29.8449 31.0023C30.0078 30.853 30.1945 30.7477 30.4049 30.6799C30.8598 30.5305 31.3248 30.5135 31.7898 30.6357C32.4585 30.8122 32.8895 31.2467 33.0932 31.9018C33.212 32.2853 33.2256 32.6791 33.1848 33.0762C33.1611 33.2867 33.1203 33.4937 33.0389 33.6906C32.7809 34.3355 32.3023 34.7054 31.6235 34.8276C31.2841 34.8887 30.9446 34.882 30.612 34.7971C29.8924 34.6172 29.4444 34.1556 29.2509 33.4462C29.1864 33.2052 29.1694 32.9574 29.1694 32.6859ZM32.3295 32.6961C32.3295 32.618 32.3363 32.5399 32.3295 32.4618C32.3125 32.2446 32.2684 32.0308 32.1632 31.8373C32.0172 31.5624 31.7898 31.3859 31.4877 31.3112C31.3825 31.2874 31.2807 31.2806 31.172 31.2806C30.6629 31.284 30.2794 31.5692 30.1232 32.0545C30.0723 32.2141 30.0485 32.3804 30.0384 32.5467C30.018 32.8216 30.0452 33.0898 30.1232 33.3545C30.2318 33.7143 30.5509 34.1182 31.1313 34.1454C31.5692 34.1658 31.9086 33.9893 32.1394 33.6125C32.1971 33.5175 32.2378 33.4122 32.2684 33.3036C32.3227 33.1068 32.3397 32.9031 32.3295 32.6961Z" fill="#333790"/>
<path d="M15.4565 32.7062C15.4565 32.0885 15.4565 31.4673 15.4565 30.8496C15.4565 30.8156 15.4565 30.7817 15.4565 30.7478C15.4599 30.6391 15.4599 30.6357 15.5685 30.6357C16.3865 30.6357 17.2079 30.6357 18.0259 30.6357C18.1719 30.6357 18.3145 30.6357 18.4604 30.6357C18.5011 30.6357 18.5215 30.6561 18.5215 30.6968C18.5215 30.8869 18.5215 31.077 18.5215 31.2637C18.5215 31.3214 18.5079 31.335 18.4536 31.3384C18.4095 31.3417 18.3654 31.3384 18.3212 31.3384C17.7069 31.3384 17.0959 31.3384 16.4816 31.3384C16.4374 31.3384 16.3933 31.3384 16.3492 31.3417C16.3152 31.3417 16.2983 31.3587 16.2983 31.3927C16.2983 31.4639 16.2949 31.5386 16.2949 31.6099C16.2949 31.8 16.2949 31.99 16.2949 32.1767C16.2949 32.2446 16.3017 32.2514 16.3729 32.2548C16.4171 32.2548 16.4612 32.2548 16.5053 32.2548C17.0789 32.2548 17.6526 32.2548 18.2262 32.2548C18.3756 32.2548 18.3722 32.2514 18.3722 32.4008C18.3722 32.5637 18.3722 32.7232 18.3722 32.8861C18.3722 32.9438 18.3586 32.954 18.3043 32.9574C18.2601 32.9608 18.216 32.9574 18.1719 32.9574C17.6085 32.9574 17.045 32.9574 16.4816 32.9574C16.4374 32.9574 16.3933 32.9574 16.3492 32.9574C16.3152 32.9574 16.2983 32.9778 16.2949 33.0083C16.2915 33.0253 16.2915 33.0423 16.2915 33.0592C16.2915 33.3715 16.2915 33.6838 16.2915 33.9961C16.2915 34.013 16.2915 34.03 16.2949 34.047C16.2983 34.0707 16.3152 34.0877 16.339 34.0877C16.3831 34.0911 16.4273 34.0911 16.4714 34.0911C17.1129 34.0911 17.7544 34.0911 18.3959 34.0911C18.4333 34.0911 18.474 34.0911 18.5113 34.0911C18.5996 34.0945 18.603 34.0945 18.603 34.1895C18.603 34.3694 18.603 34.5459 18.603 34.7258C18.603 34.7801 18.5894 34.7937 18.5351 34.7971C18.5011 34.7971 18.4672 34.7971 18.4333 34.7971C17.4964 34.7971 16.5596 34.7971 15.6228 34.7971C15.5855 34.7971 15.5447 34.7971 15.5074 34.7971C15.4769 34.7971 15.4531 34.7801 15.4531 34.7496C15.4497 34.6987 15.4497 34.6477 15.4497 34.6002C15.4565 33.9655 15.4565 33.3342 15.4565 32.7062Z" fill="#333790"/>
<path d="M8.6645 34.7937C8.61698 34.7394 8.60341 34.6749 8.57965 34.6206C8.49479 34.3966 8.40654 34.1726 8.32508 33.9485C8.30132 33.884 8.27416 33.8501 8.1961 33.8501C7.70053 33.8535 7.20497 33.8535 6.70602 33.8501C6.63813 33.8501 6.60759 33.8773 6.58722 33.9384C6.50576 34.1692 6.41751 34.3966 6.33265 34.6274C6.31907 34.6647 6.3055 34.7021 6.29192 34.736C6.27495 34.7767 6.2478 34.7937 6.20028 34.7937C6.0679 34.7937 5.93213 34.7937 5.79975 34.7937C5.69453 34.7937 5.58931 34.7937 5.48069 34.7937C5.45354 34.7937 5.42978 34.7903 5.40602 34.7869C5.39244 34.7292 5.4196 34.6919 5.43657 34.6511C5.93552 33.3647 6.43448 32.0749 6.93683 30.7885C6.94701 30.7613 6.96059 30.7376 6.96738 30.7104C6.98435 30.6527 7.01829 30.6357 7.07939 30.6357C7.32038 30.6391 7.55798 30.6391 7.79897 30.6357C7.86685 30.6357 7.8974 30.6595 7.92116 30.7206C8.05354 31.0566 8.18931 31.3927 8.32508 31.7287C8.70863 32.6893 9.09557 33.6532 9.47912 34.6138C9.49949 34.6647 9.52664 34.7122 9.53004 34.7699C9.52664 34.7767 9.52664 34.7835 9.52325 34.7869C9.51985 34.7903 9.51307 34.7903 9.50628 34.7903C9.45536 34.7903 9.40445 34.7937 9.35693 34.7937C9.12612 34.7971 8.89192 34.7937 8.6645 34.7937ZM7.99584 33.1373C7.98905 33.1068 7.98905 33.0898 7.98226 33.0762C7.80915 32.618 7.63944 32.1598 7.46633 31.7015C7.45615 31.6778 7.44597 31.6642 7.41202 31.6642C7.23892 32.1428 7.06581 32.6248 6.8927 33.1068C6.88931 33.1169 6.8961 33.1271 6.89949 33.1373C7.02847 33.1509 7.81255 33.1543 7.99584 33.1373Z" fill="#333790"/>
<path d="M23.348 31.7693C23.2326 31.8169 22.7472 31.9323 22.5538 31.9628C22.5096 31.9391 22.5096 31.8881 22.4961 31.8474C22.3569 31.491 22.0684 31.2908 21.6882 31.2806C21.3929 31.2738 21.1418 31.362 20.9347 31.5793C20.8329 31.6879 20.7684 31.8169 20.7209 31.9526C20.6666 32.1054 20.6428 32.2649 20.6292 32.4278C20.6055 32.7333 20.6157 33.0422 20.6869 33.3409C20.7378 33.5581 20.8295 33.7516 20.9992 33.9009C21.2945 34.1555 21.6271 34.1962 21.9835 34.0706C22.1532 34.0129 22.2754 33.8907 22.3705 33.7414C22.435 33.643 22.4791 33.5344 22.5198 33.4223C22.5368 33.3748 22.5504 33.3273 22.5606 33.2934C22.5809 33.2662 22.6013 33.2696 22.6149 33.2764C22.8423 33.3477 23.0731 33.4156 23.3005 33.4868C23.365 33.5072 23.3752 33.5242 23.3548 33.5819C23.2394 33.9552 23.0595 34.2913 22.7371 34.5323C22.5775 34.6511 22.4044 34.7359 22.2143 34.7868C21.841 34.8853 21.4608 34.8921 21.0908 34.7834C20.4833 34.6069 20.0861 34.2064 19.8825 33.6124C19.7637 33.2662 19.7365 32.903 19.7603 32.5398C19.7739 32.3056 19.8078 32.0748 19.8791 31.8508C20.0556 31.3145 20.3916 30.9174 20.9211 30.7002C21.2198 30.578 21.5355 30.5406 21.8546 30.5644C22.0378 30.578 22.2177 30.6085 22.3942 30.6764C22.9 30.8699 23.2156 31.2331 23.3514 31.7558C23.3548 31.7592 23.3514 31.7659 23.348 31.7693Z" fill="#333790"/>
<path d="M28.0218 31.7835C27.8148 31.831 27.6247 31.8785 27.438 31.9227C27.3769 31.9363 27.3192 31.9498 27.2581 31.9634C27.2208 31.9702 27.1936 31.9634 27.1801 31.9227C27.1733 31.8955 27.1631 31.8684 27.1529 31.8446C27.0409 31.5493 26.8305 31.366 26.5216 31.3083C26.1584 31.2404 25.8359 31.3219 25.5814 31.607C25.4795 31.7224 25.415 31.8582 25.3743 32.0041C25.2929 32.2859 25.2725 32.5744 25.2895 32.8663C25.2996 33.0597 25.32 33.2566 25.3777 33.4433C25.449 33.6809 25.5814 33.8778 25.7952 34.0067C26.0701 34.1731 26.362 34.1866 26.6607 34.078C26.8067 34.0237 26.9187 33.9219 27.007 33.7997C27.085 33.6911 27.1393 33.5689 27.1835 33.4399C27.2004 33.389 27.2038 33.3313 27.2445 33.2838C27.2615 33.2872 27.2785 33.2872 27.2921 33.2906C27.5195 33.3618 27.7503 33.4297 27.9777 33.501C28.032 33.518 28.0388 33.5315 28.0252 33.5859C27.9098 33.9728 27.7231 34.3156 27.3871 34.56C27.2412 34.6652 27.0816 34.7467 26.9085 34.7942C26.5623 34.8892 26.2127 34.9028 25.8665 34.8248C25.1944 34.6686 24.7634 34.2511 24.5427 33.6028C24.4613 33.3618 24.4307 33.1141 24.4273 32.8629C24.4205 32.5031 24.4443 32.1501 24.5699 31.8073C24.8109 31.1454 25.2725 30.7347 25.9683 30.6023C26.3111 30.5378 26.6573 30.548 26.9934 30.66C27.5331 30.8331 27.8725 31.2065 28.0218 31.7835Z" fill="#333790"/>
</svg>
